<?xml version="1.0" standalone="no"?>
<!DOCTYPE svg PUBLIC "-//W3C//DTD SVG 20010904//EN"
 "http://www.w3.org/TR/2001/REC-SVG-20010904/DTD/svg10.dtd">
<svg version="1.0" xmlns="http://www.w3.org/2000/svg"
 width="500.000000pt" height="500.000000pt" viewBox="0 0 500.000000 500.000000"
 preserveAspectRatio="xMidYMid meet">

<g transform="translate(0.000000,500.000000) scale(0.100000,-0.100000)"
fill="#000000" stroke="none">
<path d="M0 2500 l0 -2500 2500 0 2500 0 0 2500 0 2500 -2500 0 -2500 0 0
-2500z m3173 2268 c77 -41 54 -138 -32 -138 -51 0 -84 27 -84 68 0 61 62 99
116 70z m-1242 -16 c49 -41 15 -122 -51 -122 -39 0 -80 35 -80 69 0 62 80 94
131 53z m-251 -240 c0 -257 2 -272 42 -272 15 0 18 -9 18 -56 l0 -56 -75 4
c-61 3 -79 7 -97 26 -23 22 -23 27 -26 312 l-3 290 71 0 70 0 0 -248z m1010
86 l0 -163 78 83 77 83 83 -1 c45 0 82 -4 82 -9 0 -5 -26 -33 -58 -62 -32 -30
-74 -72 -94 -94 l-37 -41 91 -119 c50 -66 95 -126 100 -132 8 -10 -8 -13 -73
-13 l-84 0 -80 110 -80 111 -3 -111 -3 -110 -69 0 -70 0 0 315 0 315 70 0 70
0 0 -162z m780 82 l0 -80 45 0 45 0 0 -54 0 -55 -42 -3 -43 -3 -3 -95 c-4
-128 0 -140 43 -140 l35 0 0 -60 0 -60 -84 0 c-74 0 -86 3 -110 25 -26 24 -26
24 -26 180 l0 155 -35 0 -35 0 0 55 0 55 35 0 35 0 0 80 0 80 70 0 70 0 0 -80z
m-1071 -98 c58 -43 65 -70 69 -269 l4 -183 -70 0 -70 0 -3 165 c-4 186 -9 197
-75 197 -67 0 -74 -18 -74 -203 l0 -159 -70 0 -70 0 0 235 0 235 70 0 c65 0
70 -2 70 -22 0 -20 1 -20 18 -5 9 9 29 21 42 26 36 16 129 6 159 -17z m-1173
-113 l39 -132 41 129 41 129 71 3 c54 2 72 0 71 -10 0 -7 -37 -112 -82 -233
l-82 -220 -57 -3 c-53 -3 -56 -2 -66 25 -18 51 -150 408 -157 426 -6 15 0 17
68 17 l74 0 39 -131z m724 -104 l0 -235 -70 0 -70 0 0 235 0 235 70 0 70 0 0
-235z m1260 0 l0 -235 -75 0 -75 0 0 235 0 235 75 0 75 0 0 -235z"/>
</g>
</svg>
