<?xml version="1.0" encoding="UTF-8"?>
<svg version="1.1" xmlns="http://www.w3.org/2000/svg" width="292" height="111">
<path d="M0 0 C96.36 0 192.72 0 292 0 C292 36.63 292 73.26 292 111 C195.64 111 99.28 111 0 111 C0 74.37 0 37.74 0 0 Z " fill="#FBFBFB" transform="translate(0,0)"/>
<path d="M0 0 C0.83233154 0.00612305 1.66466309 0.01224609 2.5222168 0.01855469 C11.77560631 0.25265815 19.29258395 2.76233187 26.6875 8.4375 C27.6775 9.159375 28.6675 9.88125 29.6875 10.625 C37.68703061 17.49370691 42.391526 27.98908552 43.5625 38.3125 C44.21259122 51.33099343 40.62535065 61.53081169 32.5 71.6875 C24.63626445 80.14144969 14.49268864 85.29834084 3.01464844 85.88867188 C-9.73888136 86.18847276 -19.80905412 81.95867758 -29.3125 73.4375 C-29.6425 73.7675 -29.9725 74.0975 -30.3125 74.4375 C-33.17517567 74.51075168 -36.013219 74.52988205 -38.875 74.5 C-39.68130859 74.49548828 -40.48761719 74.49097656 -41.31835938 74.48632812 C-43.31643756 74.47450518 -45.31447783 74.45656914 -47.3125 74.4375 C-47.3125 74.1075 -47.3125 73.7775 -47.3125 73.4375 C-42.3625 73.4375 -37.4125 73.4375 -32.3125 73.4375 C-33.4675 72.014375 -34.6225 70.59125 -35.8125 69.125 C-38.75768839 65.49610717 -39.3125 64.06168485 -39.3125 59.4375 C-39.61929688 58.54804687 -39.92609375 57.65859375 -40.2421875 56.7421875 C-41.3451846 53.33658332 -41.93173572 50.10284993 -42.4375 46.5625 C-42.60507813 45.41007812 -42.77265625 44.25765625 -42.9453125 43.0703125 C-43.06648437 42.20148437 -43.18765625 41.33265625 -43.3125 40.4375 C-44.6325 42.0875 -45.9525 43.7375 -47.3125 45.4375 C-47.9725 45.1075 -48.6325 44.7775 -49.3125 44.4375 C-47.58477744 42.54033355 -45.85537266 40.64474695 -44.125 38.75 C-43.64224609 38.21955078 -43.15949219 37.68910156 -42.66210938 37.14257812 C-39.625114 33.82022748 -36.5188098 30.59691679 -33.3125 27.4375 C-34.9625 27.1075 -36.6125 26.7775 -38.3125 26.4375 C-37.69155783 22.40137593 -35.68303257 19.70499085 -33.3125 16.4375 C-32.90128906 15.86644531 -32.49007812 15.29539062 -32.06640625 14.70703125 C-24.31130095 4.75501227 -12.36941204 -0.15532224 0 0 Z " fill="#5270F9" transform="translate(239.3125,13.5625)"/>
<path d="M0 0 C4.62 0 9.24 0 14 0 C14 5.28 14 10.56 14 16 C16.64 16 19.28 16 22 16 C22 19.63 22 23.26 22 27 C19.36 27 16.72 27 14 27 C14.33 34.92 14.66 42.84 15 51 C18.465 51.495 18.465 51.495 22 52 C22 55.63 22 59.26 22 63 C19.43635517 63.10845031 16.87733721 63.18749744 14.3125 63.25 C13.59126953 63.28351563 12.87003906 63.31703125 12.12695312 63.3515625 C8.26270336 63.4221424 6.41925648 63.25919687 3.04296875 61.171875 C-0.42275996 57.48746742 -0.11885241 54.21720255 -0.09765625 49.36328125 C-0.09443359 48.06455078 -0.09121094 46.76582031 -0.08789062 45.42773438 C-0.07953531 44.05598892 -0.07107037 42.68424413 -0.0625 41.3125 C-0.05748335 39.92903805 -0.05292073 38.54557437 -0.04882812 37.16210938 C-0.03702529 33.77469605 -0.02056019 30.38736967 0 27 C-1.98 27 -3.96 27 -6 27 C-6 23.37 -6 19.74 -6 16 C-4.02 16 -2.04 16 0 16 C0 10.72 0 5.44 0 0 Z " fill="#FCFDFF" transform="translate(239,24)"/>
<path d="M0 0 C4.62 0 9.24 0 14 0 C14 15.51 14 31.02 14 47 C9.38 47 4.76 47 0 47 C0 31.49 0 15.98 0 0 Z " fill="#FAFBFF" transform="translate(213,40)"/>
<path d="M0 0 C3 2.125 3 2.125 5 5 C5.07050215 8.5251077 4.68878725 10.20524549 2.375 12.875 C-0.97395179 14.46134558 -3.34026746 14.45746657 -7 14 C-9.4375 12.375 -9.4375 12.375 -11 10 C-11.60605429 6.36367425 -11.47161336 4.71685231 -9.4375 1.625 C-6.02544071 -0.64970619 -4.02388226 -0.63534983 0 0 Z " fill="#F7F8FF" transform="translate(223,23)"/>
<path d="M0 0 C0.33 0 0.66 0 1 0 C1.10957031 0.89460938 1.21914062 1.78921875 1.33203125 2.7109375 C2.29632926 10.06468982 3.57546137 16.98500155 6 24 C3 22.1875 3 22.1875 0 20 C0 19.01 0 18.02 0 17 C-0.99 16.67 -1.98 16.34 -3 16 C-3 15.01 -3 14.02 -3 13 C-3.99 12.67 -4.98 12.34 -6 12 C-7.1875 9.4375 -7.1875 9.4375 -8 7 C-7.236875 6.5875 -6.47375 6.175 -5.6875 5.75 C-3.05519766 4.03594266 -1.7575987 2.54851812 0 0 Z " fill="#F1F1F3" transform="translate(196,53)"/>
<path d="M0 0 C3.98340057 2.1023503 6.49400352 4.24100528 9 8 C9.33 9.65 9.66 11.3 10 13 C4.39 13 -1.22 13 -7 13 C-7 12.67 -7 12.34 -7 12 C-2.05 12 2.9 12 8 12 C6.2984375 9.8653125 6.2984375 9.8653125 4.5625 7.6875 C2.44949852 5.03664359 1.07773654 3.23320963 0 0 Z " fill="#7F8085" transform="translate(199,75)"/>
<path d="M0 0 C0.66 0.66 1.32 1.32 2 2 C-0.55991624 4.01136276 -3.04590299 5.62845496 -6 7 C-4.60667426 3.63279613 -3.0210714 2.0140476 0 0 Z " fill="#5F7CFF" transform="translate(214,22)"/>
</svg>
