<?xml version="1.0" standalone="no"?>
<!DOCTYPE svg PUBLIC "-//W3C//DTD SVG 20010904//EN"
 "http://www.w3.org/TR/2001/REC-SVG-20010904/DTD/svg10.dtd">
<svg version="1.0" xmlns="http://www.w3.org/2000/svg"
 width="500.000000pt" height="500.000000pt" viewBox="0 0 500.000000 500.000000"
 preserveAspectRatio="xMidYMid meet">

<g transform="translate(0.000000,500.000000) scale(0.100000,-0.100000)"
fill="#000000" stroke="none">
<path d="M3251 4859 c-117 -23 -229 -105 -291 -214 -31 -54 -32 -55 -78 -56
-46 0 -49 -2 -117 -80 l-70 -79 -3 165 -2 165 -65 0 -65 0 0 -315 0 -315 65 0
64 0 3 113 3 112 83 -112 84 -113 74 0 c57 0 73 3 68 13 -4 6 -47 64 -96 128
-48 64 -88 121 -88 126 0 5 20 29 45 53 l45 44 0 -56 c0 -180 130 -349 312
-403 203 -60 428 61 508 273 18 47 21 73 18 152 -3 81 -8 105 -35 162 -56 119
-165 206 -293 234 -72 15 -104 16 -169 3z m-78 -91 c77 -41 54 -138 -32 -138
-51 0 -84 27 -84 68 0 61 62 99 116 70z m297 -88 l0 -80 45 0 45 0 0 -54 0
-55 -42 -3 -43 -3 -3 -95 c-4 -128 0 -140 43 -140 l35 0 0 -60 0 -60 -84 0
c-74 0 -86 3 -110 25 -26 24 -26 24 -26 180 l0 155 -35 0 -35 0 0 55 0 55 35
0 35 0 0 80 0 80 70 0 70 0 0 -80z m-260 -315 l0 -235 -75 0 -75 0 0 235 0
235 75 0 75 0 0 -235z"/>
<path d="M1825 4745 c-53 -52 -12 -114 70 -105 56 6 74 74 29 109 -35 28 -69
26 -99 -4z"/>
<path d="M1550 4472 l0 -289 24 -22 c18 -17 40 -23 95 -28 l71 -6 0 56 c0 53
-1 56 -27 59 l-28 3 -3 258 -2 257 -65 0 -65 0 0 -288z"/>
<path d="M2212 4575 c-36 -30 -42 -31 -42 -5 0 18 -7 20 -65 20 l-65 0 0 -230
0 -230 64 0 64 0 4 166 c3 160 4 166 27 185 13 10 37 19 55 19 67 0 76 -25 76
-214 l0 -156 65 0 65 0 0 177 c0 158 -2 181 -20 219 -26 52 -68 74 -143 74
-45 0 -61 -5 -85 -25z"/>
<path d="M1052 4578 c3 -7 40 -111 84 -230 l79 -218 51 0 52 0 67 183 c37 100
75 203 85 230 l18 47 -69 0 -68 0 -37 -117 c-20 -65 -40 -122 -44 -127 -7 -7
-54 128 -76 217 -6 26 -8 27 -76 27 -52 0 -69 -3 -66 -12z"/>
<path d="M1810 4360 l0 -230 65 0 65 0 0 230 0 230 -65 0 -65 0 0 -230z"/>
</g>
</svg>
