<?xml version="1.0" encoding="UTF-8"?>
<svg version="1.1" xmlns="http://www.w3.org/2000/svg" width="292" height="111">
<path d="M0 0 C3.99274655 4.17845569 6.85808501 8.7908022 9.6875 13.8125 C10.12707031 14.56144531 10.56664062 15.31039062 11.01953125 16.08203125 C15.37068608 24.86121643 15.08285745 36.52555238 12.9921875 45.9453125 C12.07404495 48.40655177 11.02583889 50.55431209 9.6875 52.8125 C9.24019531 53.58722656 8.79289062 54.36195312 8.33203125 55.16015625 C1.46062628 66.19493259 -6.75452041 71.32591572 -18.6875 76.1875 C-31.6738526 78.42652631 -43.06989884 76.69183978 -53.9375 69.125 C-55.39687173 68.02220615 -56.85544476 66.91835268 -58.3125 65.8125 C-60.99987625 64.46881187 -63.15994191 65.03808673 -66.07714844 65.28491211 C-75.81207999 65.93135625 -75.81207999 65.93135625 -80.26171875 62.61328125 C-82.54037859 59.7775297 -84.43766885 56.92802824 -86.3125 53.8125 C-87.9625 51.5025 -89.6125 49.1925 -91.3125 46.8125 C-91.6425 52.7525 -91.9725 58.6925 -92.3125 64.8125 C-97.2625 64.8125 -102.2125 64.8125 -107.3125 64.8125 C-107.3125 44.0225 -107.3125 23.2325 -107.3125 1.8125 C-102.6925 1.4825 -98.0725 1.1525 -93.3125 0.8125 C-91.45284925 2.67215075 -92.07162451 5.76139119 -91.99609375 8.25390625 C-91.93325195 10.21166992 -91.93325195 10.21166992 -91.86914062 12.20898438 C-91.82932392 13.5976533 -91.78961175 14.98632522 -91.75 16.375 C-91.70682011 17.76759183 -91.663206 19.16017028 -91.61914062 20.55273438 C-91.51264124 23.97254801 -91.41063077 27.39243763 -91.3125 30.8125 C-90.56226563 29.8740625 -89.81203125 28.935625 -89.0390625 27.96875 C-80.94459847 18.27851261 -80.94459847 18.27851261 -76.2890625 16.94921875 C-73.83866263 16.99485657 -71.68197557 17.1991623 -69.3125 17.8125 C-69.0340625 16.6059375 -69.0340625 16.6059375 -68.75 15.375 C-64.89429901 5.8195671 -57.20413506 -1.47056469 -48.0625 -5.9375 C-30.83065455 -13.16224932 -15.24909432 -10.07015662 0 0 Z M-54.3125 2.8125 C-55.81258329 5.9490378 -56.65462867 7.75760327 -55.5625 11.125 C-54.40372685 12.95544055 -54.40372685 12.95544055 -52.3125 13.8125 C-47.27963307 14.28695325 -47.27963307 14.28695325 -42.875 12.125 C-41.00841179 9.36244945 -40.72600006 8.08014255 -41.3125 4.8125 C-42.99283035 2.19865279 -44.23254558 1.83461505 -47.25 1 C-50.51574463 0.80005645 -51.79590922 0.74530043 -54.3125 2.8125 Z M-28.3125 2.8125 C-28.6425 7.7625 -28.9725 12.7125 -29.3125 17.8125 C-31.2925 18.1425 -33.2725 18.4725 -35.3125 18.8125 C-35.3125 21.7825 -35.3125 24.7525 -35.3125 27.8125 C-33.0025 28.1425 -30.6925 28.4725 -28.3125 28.8125 C-28.33868408 29.73063477 -28.36486816 30.64876953 -28.3918457 31.59472656 C-28.47718373 35.0091118 -28.53980074 38.42236061 -28.5871582 41.83740234 C-28.61226737 43.31382146 -28.64636255 44.79011668 -28.68969727 46.26611328 C-28.750518 48.3912614 -28.77874209 50.51476394 -28.80078125 52.640625 C-28.82696533 53.9184082 -28.85314941 55.19619141 -28.88012695 56.51269531 C-28.60961423 59.97098348 -28.60961423 59.97098348 -25.93505859 62.21411133 C-21.52033601 64.90478241 -17.57906723 64.93619358 -12.5 64.875 C-10.788125 64.854375 -9.07625 64.83375 -7.3125 64.8125 C-7.3125 61.1825 -7.3125 57.5525 -7.3125 53.8125 C-9.9525 53.8125 -12.5925 53.8125 -15.3125 53.8125 C-15.3125 45.5625 -15.3125 37.3125 -15.3125 28.8125 C-13.0025 28.8125 -10.6925 28.8125 -8.3125 28.8125 C-7.07982652 27.80413938 -7.07982652 27.80413938 -7.21484375 25.74609375 C-7.22644531 24.92238281 -7.23804688 24.09867188 -7.25 23.25 C-7.25902344 22.42371094 -7.26804687 21.59742187 -7.27734375 20.74609375 C-7.28894531 20.10800781 -7.30054688 19.46992187 -7.3125 18.8125 C-9.9525 18.8125 -12.5925 18.8125 -15.3125 18.8125 C-15.3125 13.5325 -15.3125 8.2525 -15.3125 2.8125 C-19.6025 2.8125 -23.8925 2.8125 -28.3125 2.8125 Z M-55.3125 18.8125 C-55.337144 25.20287797 -55.35533317 31.59322852 -55.36743164 37.98364258 C-55.37247308 40.15942873 -55.37930607 42.33521147 -55.38793945 44.51098633 C-55.40001338 47.63103067 -55.40573005 50.75103038 -55.41015625 53.87109375 C-55.41531754 54.85025253 -55.42047882 55.82941132 -55.42579651 56.83824158 C-55.42587204 57.73909988 -55.42594757 58.63995819 -55.42602539 59.56811523 C-55.428246 60.36531479 -55.43046661 61.16251434 -55.43275452 61.98387146 C-55.51300456 63.83172281 -55.51300456 63.83172281 -54.3125 64.8125 C-50.3525 64.8125 -46.3925 64.8125 -42.3125 64.8125 C-42.3125 49.6325 -42.3125 34.4525 -42.3125 18.8125 C-46.6025 18.8125 -50.8925 18.8125 -55.3125 18.8125 Z M-76.4375 33.5625 C-76.99695313 34.07296875 -77.55640625 34.5834375 -78.1328125 35.109375 C-79.50277258 36.72447238 -79.50277258 36.72447238 -79.24609375 38.6875 C-77.99107875 41.54410318 -76.23876255 43.66335787 -74.25 46.0625 C-73.51652344 46.95453125 -72.78304687 47.8465625 -72.02734375 48.765625 C-71.17849609 49.77882813 -71.17849609 49.77882813 -70.3125 50.8125 C-69.29676711 47.76530133 -69.3027876 46.82416996 -69.87109375 43.80078125 C-70.00966797 43.04345703 -70.14824219 42.28613281 -70.29101562 41.50585938 C-70.51821289 40.32733398 -70.51821289 40.32733398 -70.75 39.125 C-70.89759766 38.32771484 -71.04519531 37.53042969 -71.19726562 36.70898438 C-71.56234964 34.74224148 -71.93655289 32.77719533 -72.3125 30.8125 C-74.12289196 30.8125 -75.17735476 32.37854959 -76.4375 33.5625 Z M-69.3125 50.8125 C-68.3125 52.8125 -68.3125 52.8125 -68.3125 52.8125 Z " fill="#5371F8" transform="translate(269.3125,22.1875)"/>
<path d="M0 0 C5.25969153 1.69061513 7.35770387 4.20472184 10 9 C11.38611218 12.90482764 11.12598233 16.95852378 11.09765625 21.046875 C11.0962413 21.81807678 11.09482635 22.58927856 11.09336853 23.3838501 C11.08778534 25.83927338 11.07523595 28.29460442 11.0625 30.75 C11.05748283 32.41796743 11.0529203 34.08593629 11.04882812 35.75390625 C11.03782141 39.83597287 11.02056836 43.91797081 11 48 C6.05 48 1.1 48 -4 48 C-4.04898438 45.72480469 -4.09796875 43.44960937 -4.1484375 41.10546875 C-4.20245239 38.90121908 -4.25975777 36.69707782 -4.31738281 34.49291992 C-4.35565798 32.96142661 -4.39051349 31.42984385 -4.421875 29.89819336 C-4.46755807 27.6961267 -4.52554537 25.49467504 -4.5859375 23.29296875 C-4.59748871 22.60849167 -4.60903992 21.92401459 -4.62094116 21.21879578 C-4.73273744 17.61539163 -4.94394553 16.0840817 -7 13 C-9.20725073 12.63637182 -9.20725073 12.63637182 -11.625 12.8125 C-12.85089844 12.85310547 -12.85089844 12.85310547 -14.1015625 12.89453125 C-14.72804687 12.92933594 -15.35453125 12.96414062 -16 13 C-17.1486567 16.71167362 -17.20542433 20.30336227 -17.31640625 24.171875 C-17.33718735 24.8542926 -17.35796844 25.53671021 -17.37937927 26.23980713 C-17.44452052 28.40977356 -17.50359404 30.57985624 -17.5625 32.75 C-17.60571897 34.22527221 -17.64933432 35.70053287 -17.69335938 37.17578125 C-17.80090811 40.78373699 -17.90024352 44.39178678 -18 48 C-22.95 48 -27.9 48 -33 48 C-33 32.49 -33 16.98 -33 1 C-28.05 1 -23.1 1 -18 1 C-17.67 1.66 -17.34 2.32 -17 3 C-16.29746094 2.51273438 -15.59492187 2.02546875 -14.87109375 1.5234375 C-10.08455499 -1.01635858 -5.28904704 -0.51670473 0 0 Z " fill="#5271FC" transform="translate(143,39)"/>
<path d="M0 0 C4.95 0 9.9 0 15 0 C17.3645738 6.02966319 19.29335479 12.12989155 21.1328125 18.33984375 C21.74331325 20.89435559 21.74331325 20.89435559 23 22 C25.31 14.74 27.62 7.48 30 0 C35.28 0 40.56 0 46 0 C43.55832852 8.712727 40.44532554 17.13135839 37.27441406 25.59814453 C36.36705694 28.02121168 35.46440872 30.44599396 34.5625 32.87109375 C33.98724812 34.41416279 33.41173687 35.95713517 32.8359375 37.5 C32.56615082 38.22388916 32.29636414 38.94777832 32.0184021 39.69360352 C30.11707109 44.76585782 30.11707109 44.76585782 29 47 C24.71 47 20.42 47 16 47 C13.71521236 40.7908921 11.43671513 34.57952664 9.1640625 28.3659668 C8.38975501 26.2517241 7.61372061 24.13811305 6.8359375 22.02514648 C5.71942747 18.99105897 4.60911112 15.95476747 3.5 12.91796875 C3.15001953 11.97100632 2.80003906 11.02404388 2.43945312 10.04838562 C1.95895508 8.72735588 1.95895508 8.72735588 1.46875 7.37963867 C1.18451172 6.60464523 0.90027344 5.82965179 0.60742188 5.03117371 C0 3 0 3 0 0 Z " fill="#5371F6" transform="translate(11,40)"/>
<path d="M0 0 C4.95 0 9.9 0 15 0 C15 16.83 15 33.66 15 51 C16.65 51 18.3 51 20 51 C21 52 21 52 21.09765625 54.50390625 C21.08605469 55.51324219 21.07445313 56.52257812 21.0625 57.5625 C21.05347656 58.57441406 21.04445313 59.58632812 21.03515625 60.62890625 C21.02355469 61.41136719 21.01195313 62.19382813 21 63 C18.43571485 63.13559675 15.87864784 63.23433188 13.3125 63.3125 C12.59126953 63.35439453 11.87003906 63.39628906 11.12695312 63.43945312 C10.06831055 63.46362305 10.06831055 63.46362305 8.98828125 63.48828125 C8.34415283 63.51446533 7.70002441 63.54064941 7.03637695 63.56762695 C4.52793345 62.86841449 2.77520172 61.8294806 1.00617981 59.90803528 C-1.37631979 55.39006221 -0.59136927 49.78907863 -0.48828125 44.82421875 C-0.48120651 43.54392288 -0.47413177 42.26362701 -0.46684265 40.9445343 C-0.44781714 37.55254688 -0.39875838 34.16164226 -0.34332275 30.77008057 C-0.29203199 27.30455166 -0.26930789 23.83884653 -0.24414062 20.37304688 C-0.18903361 13.58150255 -0.10273564 6.79098412 0 0 Z " fill="#5271FC" transform="translate(61,24)"/>
<path d="M0 0 C4.95 0 9.9 0 15 0 C15 15.51 15 31.02 15 47 C10.05 47 5.1 47 0 47 C0 31.49 0 15.98 0 0 Z " fill="#5271FD" transform="translate(87,40)"/>
<path d="M0 0 C0.91007812 0.00902344 1.82015625 0.01804688 2.7578125 0.02734375 C3.45648438 0.03894531 4.15515625 0.05054688 4.875 0.0625 C5.205 1.3825 5.535 2.7025 5.875 4.0625 C6.865 4.0625 7.855 4.0625 8.875 4.0625 C8.545 6.7025 8.215 9.3425 7.875 12.0625 C7.215 12.0625 6.555 12.0625 5.875 12.0625 C5.545 22.6225 5.215 33.1825 4.875 44.0625 C0.915 44.0625 -3.045 44.0625 -7.125 44.0625 C-7.125 29.8725 -7.125 15.6825 -7.125 1.0625 C-4.60024538 -0.19987731 -2.81299534 -0.03606404 0 0 Z " fill="#5171FD" transform="translate(119.125,40.9375)"/>
<path d="M0 0 C0.33 0.99 0.66 1.98 1 3 C2.89179203 3.6814823 2.89179203 3.6814823 5 4 C5.99 4.33 6.98 4.66 8 5 C8 5.66 8 6.32 8 7 C8.5775 7.28875 9.155 7.5775 9.75 7.875 C13.16666667 9.58333333 16.58333333 11.29166667 20 13 C20.33 11.02 20.66 9.04 21 7 C21.66 7 22.32 7 23 7 C23.02685095 9.47923801 23.04676547 11.9581884 23.0625 14.4375 C23.07087891 15.14455078 23.07925781 15.85160156 23.08789062 16.58007812 C23.09653588 18.38693559 23.05220011 20.19387603 23 22 C22 23 22 23 18.9375 23.0625 C17.968125 23.041875 16.99875 23.02125 16 23 C16 25.97 16 28.94 16 32 C13.64046906 29.64046906 13.50858587 28.22104383 13 25 C12.01 25.33 11.02 25.66 10 26 C10 39.86 10 53.72 10 68 C9.67 68 9.34 68 9 68 C9 53.15 9 38.3 9 23 C4.71 23 0.42 23 -4 23 C-4 37.19 -4 51.38 -4 66 C-4.33 66 -4.66 66 -5 66 C-5.16755313 59.9312332 -5.32811943 53.86233729 -5.48217773 47.79321289 C-5.53558831 45.72805796 -5.59091695 43.66295172 -5.64819336 41.59790039 C-5.73013039 38.63177998 -5.80519629 35.66555359 -5.87890625 32.69921875 C-5.90594131 31.7741301 -5.93297638 30.84904144 -5.96083069 29.8959198 C-5.98092697 29.03525406 -6.00102325 28.17458832 -6.02172852 27.2878418 C-6.04171402 26.53061325 -6.06169952 25.7733847 -6.08229065 24.99320984 C-6 23 -6 23 -5 20 C-5.32441604 18.33157466 -5.65939189 16.66519519 -6 15 C-6.3 6.6 -6.3 6.6 -5 3 C-2.4375 1.1875 -2.4375 1.1875 0 0 Z M-3 7 C-4.50008329 10.1365378 -5.34212867 11.94510327 -4.25 15.3125 C-3.09122685 17.14294055 -3.09122685 17.14294055 -1 18 C4.03286693 18.47445325 4.03286693 18.47445325 8.4375 16.3125 C10.30408821 13.54994945 10.58649994 12.26764255 10 9 C8.31966965 6.38615279 7.07995442 6.02211505 4.0625 5.1875 C0.79675537 4.98755645 -0.48340922 4.93280043 -3 7 Z " fill="#5971E8" transform="translate(218,18)"/>
<path d="M0 0 C2.3650062 0.76064895 3.91838247 1.61225498 6 3 C6 3.33 6 3.66 6 4 C4.02 4 2.04 4 0 4 C0 3.34 0 2.68 0 2 C-2.08410658 2.08733973 -4.16734669 2.19552278 -6.25 2.3125 C-7.41015625 2.37050781 -8.5703125 2.42851563 -9.765625 2.48828125 C-13.1528011 3.02417505 -14.4518182 3.82001878 -17 6 C-17.66 6 -18.32 6 -19 6 C-19 4.68 -19 3.36 -19 2 C-24.94 2.495 -24.94 2.495 -31 3 C-31 17.19 -31 31.38 -31 46 C-27.04 46 -23.08 46 -19 46 C-19 35.11 -19 24.22 -19 13 C-18.01 13.33 -17.02 13.66 -16 14 C-16.33 14.99 -16.66 15.98 -17 17 C-17.15179014 19.3555448 -17.24899289 21.71475123 -17.31640625 24.07421875 C-17.33718735 24.7580513 -17.35796844 25.44188385 -17.37937927 26.1464386 C-17.44466154 28.3266921 -17.50366017 30.50706405 -17.5625 32.6875 C-17.60570553 34.16732986 -17.64932047 35.64714783 -17.69335938 37.12695312 C-17.80109025 40.75118254 -17.90032107 44.37550438 -18 48 C-22.95 48 -27.9 48 -33 48 C-33 32.49 -33 16.98 -33 1 C-28.05 1 -23.1 1 -18 1 C-17.67 1.66 -17.34 2.32 -17 3 C-16.29746094 2.51273438 -15.59492187 2.02546875 -14.87109375 1.5234375 C-10.10348348 -1.00631489 -5.27082575 -0.55482376 0 0 Z " fill="#5D73DB" transform="translate(143,39)"/>
<path d="M0 0 C4.95 0 9.9 0 15 0 C15 16.83 15 33.66 15 51 C16.65 51 18.3 51 20 51 C21 52 21 52 21.09765625 54.50390625 C21.08605469 55.51324219 21.07445313 56.52257812 21.0625 57.5625 C21.05347656 58.57441406 21.04445313 59.58632812 21.03515625 60.62890625 C21.02355469 61.41136719 21.01195313 62.19382813 21 63 C18.43571485 63.13559675 15.87864784 63.23433188 13.3125 63.3125 C12.59126953 63.35439453 11.87003906 63.39628906 11.12695312 63.43945312 C10.06831055 63.46362305 10.06831055 63.46362305 8.98828125 63.48828125 C8.34415283 63.51446533 7.70002441 63.54064941 7.03637695 63.56762695 C4.52793345 62.86841449 2.77520172 61.8294806 1.00617981 59.90803528 C-1.37631979 55.39006221 -0.59136927 49.78907863 -0.48828125 44.82421875 C-0.48120651 43.54392288 -0.47413177 42.26362701 -0.46684265 40.9445343 C-0.44781714 37.55254688 -0.39875838 34.16164226 -0.34332275 30.77008057 C-0.29203199 27.30455166 -0.26930789 23.83884653 -0.24414062 20.37304688 C-0.18903361 13.58150255 -0.10273564 6.79098412 0 0 Z M1 1 C0.90112612 8.88367043 0.82852696 16.76697995 0.78027344 24.65112305 C0.76241675 27.33327823 0.73458564 30.0150546 0.69824219 32.69702148 C0.64972458 36.55203066 0.62703006 40.40645998 0.609375 44.26171875 C0.58872986 45.46084396 0.56808472 46.65996918 0.54681396 47.89543152 C0.4990862 54.35304484 0.4990862 54.35304484 2.79492188 60.265625 C5.9698914 62.76285524 8.89985127 62.54904033 12.75 62.3125 C13.79607422 62.27866211 13.79607422 62.27866211 14.86328125 62.24414062 C16.57644935 62.18547048 18.28850623 62.09579256 20 62 C20 59.36 20 56.72 20 54 C18.02 53.01 16.04 52.02 14 51 C13.67 34.5 13.34 18 13 1 C9.04 1 5.08 1 1 1 Z " fill="#5B73E2" transform="translate(61,24)"/>
<path d="M0 0 C2.4375 1.6875 2.4375 1.6875 4 4 C4.5 7 4.5 7 4 10 C2.05872646 12.66026374 0.65759911 13.76393878 -2.4375 14.875 C-5.60118415 15.02932606 -7.25583784 14.58872546 -10 13 C-11.9375 10.75 -11.9375 10.75 -13 8 C-12.39098554 4.61658631 -11.56828287 2.65247292 -9.3125 0.0625 C-5.85620496 -1.52552745 -3.62102735 -0.96991804 0 0 Z " fill="#506FF7" transform="translate(99,23)"/>
<path d="M0 0 C4.95 0 9.9 0 15 0 C15 15.51 15 31.02 15 47 C10.05 47 5.1 47 0 47 C0 31.49 0 15.98 0 0 Z M1 1 C0.95054429 6.76577504 0.9142539 12.53142646 0.89013672 18.29736328 C0.88008217 20.25864818 0.86643667 22.21991811 0.84912109 24.18115234 C0.82484887 27.00101418 0.81351141 29.82067772 0.8046875 32.640625 C0.79436493 33.51680481 0.78404236 34.39298462 0.77340698 35.29571533 C0.77325592 36.11626404 0.77310486 36.93681274 0.77294922 37.78222656 C0.768508 38.50170471 0.76406677 39.22118286 0.75949097 39.96246338 C0.9344512 42.43437029 0.9344512 42.43437029 3 46 C7.95 45.505 7.95 45.505 13 45 C13 30.48 13 15.96 13 1 C9.04 1 5.08 1 1 1 Z " fill="#5B72DC" transform="translate(87,40)"/>
<path d="M0 0 C3.14411963 2.57246151 3.96039126 5.12083795 5 9 C5.16237778 11.78486623 5.23437565 14.46222484 5.1953125 17.2421875 C5.1924826 18.01055939 5.18965271 18.77893127 5.18673706 19.57058716 C5.17561311 22.00555521 5.1505236 24.44014462 5.125 26.875 C5.11496011 28.53384882 5.10583603 30.19270346 5.09765625 31.8515625 C5.07740755 35.90130209 5.03824546 39.95023118 5 44 C0.05 44 -4.9 44 -10 44 C-10.04898438 41.72480469 -10.09796875 39.44960937 -10.1484375 37.10546875 C-10.20245239 34.90121908 -10.25975777 32.69707782 -10.31738281 30.49291992 C-10.35565798 28.96142661 -10.39051349 27.42984385 -10.421875 25.89819336 C-10.46755807 23.6961267 -10.52554537 21.49467504 -10.5859375 19.29296875 C-10.59748871 18.60849167 -10.60903992 17.92401459 -10.62094116 17.21879578 C-10.73273744 13.61539163 -10.94394553 12.0840817 -13 9 C-15.20725073 8.63637182 -15.20725073 8.63637182 -17.625 8.8125 C-18.44226563 8.83957031 -19.25953125 8.86664063 -20.1015625 8.89453125 C-20.72804687 8.92933594 -21.35453125 8.96414062 -22 9 C-21.67 8.34 -21.34 7.68 -21 7 C-17.7 7 -14.4 7 -11 7 C-8.87003827 11.25992347 -8.70126066 13.48206638 -8.5859375 18.171875 C-8.56657135 18.8542926 -8.5472052 19.53671021 -8.5272522 20.23980713 C-8.46768902 22.40974608 -8.42116554 24.57973877 -8.375 26.75 C-8.33679869 28.22528297 -8.2977457 29.70054415 -8.2578125 31.17578125 C-8.16200765 34.78365418 -8.07789084 38.39169083 -8 42 C-4.37 42 -0.74 42 3 42 C2.67 31.11 2.34 20.22 2 9 C1.01 9 0.02 9 -1 9 C-2.25541557 5.23375329 -1.37061958 3.62811066 0 0 Z " fill="#5B72DD" transform="translate(149,43)"/>
<path d="M0 0 C4.29 0 8.58 0 13 0 C13 0.33 13 0.66 13 1 C9.37 1 5.74 1 2 1 C2.33 20.8 2.66 40.6 3 61 C6.63 61.33 10.26 61.66 14 62 C14 56.06 14 50.12 14 44 C14.33 44 14.66 44 15 44 C15 50.27 15 56.54 15 63 C10.05 63 5.1 63 0 63 C0 42.21 0 21.42 0 0 Z " fill="#5E75DC" transform="translate(162,24)"/>
<path d="M0 0 C0 0.99 0 1.98 0 3 C-0.66 3.66 -1.32 4.32 -2 5 C-2.28875 5.928125 -2.5775 6.85625 -2.875 7.8125 C-4.08513511 11.24121613 -5.51838669 13.36328586 -8 16 C-8.66 16 -9.32 16 -10 16 C-10.33 16.99 -10.66 17.98 -11 19 C-13.97 19.33 -16.94 19.66 -20 20 C-20 20.66 -20 21.32 -20 22 C-20.99 22 -21.98 22 -23 22 C-23.33 24.31 -23.66 26.62 -24 29 C-24.99 29 -25.98 29 -27 29 C-28.67099977 29.31088368 -30.33871537 29.64080332 -32 30 C-30.04708139 27.29544261 -28.03649114 24.64206644 -26 22 C-25.2575 21.01 -24.515 20.02 -23.75 19 C-19.67452701 16.03601964 -15.87836885 16.57373476 -11 17 C-10.814375 16.195625 -10.62875 15.39125 -10.4375 14.5625 C-8.16290858 8.9254691 -4.2847441 4.2847441 0 0 Z " fill="#5B71E8" transform="translate(211,23)"/>
<path d="M0 0 C0.66 0 1.32 0 2 0 C2 2.64 2 5.28 2 8 C4.33075929 7.04134491 4.33075929 7.04134491 6 4 C6.33 4.99 6.66 5.98 7 7 C9.01508358 7.73323796 9.01508358 7.73323796 11 8 C3.40952513 15.98421708 3.40952513 15.98421708 -1 18 C-1.66 17.67 -2.32 17.34 -3 17 C-2.690625 16.236875 -2.38125 15.47375 -2.0625 14.6875 C-0.66197419 9.82685159 -0.34020266 5.03141827 0 0 Z " fill="#5671ED" transform="translate(262,76)"/>
<path d="M0 0 C0.33 0 0.66 0 1 0 C1 16.83 1 33.66 1 51 C2.65 51 4.3 51 6 51 C7 52 7 52 7.09765625 54.50390625 C7.06510417 57.3359375 7.03255208 60.16796875 7 63 C1.72 63 -3.56 63 -9 63 C-9 62.67 -9 62.34 -9 62 C-4.05 62 0.9 62 6 62 C5.67 59.36 5.34 56.72 5 54 C3.35 53.34 1.7 52.68 0 52 C0 34.84 0 17.68 0 0 Z " fill="#576BC0" transform="translate(75,24)"/>
<path d="M0 0 C2.31 0 4.62 0 7 0 C6.484375 0.5775 5.96875 1.155 5.4375 1.75 C3.81086477 3.8025433 3.81086477 3.8025433 4.125 5.75 C5.38303 8.9849343 7.44523071 11.53937653 9.5625 14.25 C9.98724609 14.80429688 10.41199219 15.35859375 10.84960938 15.9296875 C11.89398341 17.29089411 12.94622464 18.64605833 14 20 C12.02 20.99 12.02 20.99 10 22 C9.80664062 21.43410156 9.61328125 20.86820313 9.4140625 20.28515625 C9.15367187 19.55167969 8.89328125 18.81820312 8.625 18.0625 C8.36976563 17.33160156 8.11453125 16.60070312 7.8515625 15.84765625 C7.14728587 13.81317884 7.14728587 13.81317884 5 13 C4 11 4 11 3 9 C2.34 8.67 1.68 8.34 1 8 C0.40644386 5.35139573 0.25790731 2.70802678 0 0 Z " fill="#5A70E5" transform="translate(187,55)"/>
<path d="M0 0 C4.95 0 9.9 0 15 0 C17 4 17 4 16.625 6.25 C16.41875 6.8275 16.2125 7.405 16 8 C15.34 6.02 14.68 4.04 14 2 C10.37 1.67 6.74 1.34 3 1 C3 3.64 3 6.28 3 9 C1 6 1 6 0 0 Z " fill="#5C72DF" transform="translate(11,40)"/>
<path d="M0 0 C1.99954746 -0.04254356 4.00041636 -0.04080783 6 0 C7 1 7 1 7.09765625 3.50390625 C7.06510417 6.3359375 7.03255208 9.16796875 7 12 C1.72 12 -3.56 12 -9 12 C-9 11.67 -9 11.34 -9 11 C-4.05 11 0.9 11 6 11 C5.67 8.36 5.34 5.72 5 3 C2.525 2.01 2.525 2.01 0 1 C0 0.67 0 0.34 0 0 Z " fill="#5E71CC" transform="translate(75,75)"/>
<path d="M0 0 C0.93619813 3.15506142 1.1057123 5.96586502 1.0625 9.25 C1.05347656 10.14203125 1.04445313 11.0340625 1.03515625 11.953125 C1.02355469 12.62859375 1.01195312 13.3040625 1 14 C-0.65 14 -2.3 14 -4 14 C-3.52188823 12.22888156 -3.0424722 10.45811517 -2.5625 8.6875 C-2.29566406 7.70136719 -2.02882812 6.71523438 -1.75390625 5.69921875 C-1.21920575 3.78482474 -0.62855462 1.88566385 0 0 Z " fill="#5A72E7" transform="translate(40,43)"/>
<path d="M0 0 C3.67758005 3.28355362 5.81389118 6.62778237 8 11 C7.67 11.66 7.34 12.32 7 13 C6.34 12.67 5.68 12.34 5 12 C5 10.68 5 9.36 5 8 C4.34 8 3.68 8 3 8 C2.67 7.34 2.34 6.68 2 6 C1.01 5.67 0.02 5.34 -1 5 C-0.67 3.35 -0.34 1.7 0 0 Z " fill="#5A72DE" transform="translate(271,25)"/>
<path d="M0 0 C1.32 0.66 2.64 1.32 4 2 C4.2295711 5.36704285 4.33943529 7.41370268 2.625 10.375 C2.08875 10.91125 1.5525 11.4475 1 12 C0.34 12 -0.32 12 -1 12 C-0.67 11.278125 -0.34 10.55625 0 9.8125 C1.01694937 6.9523299 1.24355771 5.00387837 1 2 C0.67 1.34 0.34 0.68 0 0 Z " fill="#5970E0" transform="translate(226,25)"/>
<path d="M0 0 C2.96783129 1.45668783 5.86415313 3.01232086 8.75 4.625 C9.94882813 5.29402344 9.94882813 5.29402344 11.171875 5.9765625 C11.77515625 6.31429687 12.3784375 6.65203125 13 7 C13 7.66 13 8.32 13 9 C7.97290493 7.42903279 3.97133531 4.38006951 0 1 C0 0.67 0 0.34 0 0 Z " fill="#566ED6" transform="translate(210,86)"/>
<path d="M0 0 C0.33 0.66 0.66 1.32 1 2 C1.66 2 2.32 2 3 2 C3 2.66 3 3.32 3 4 C3.66 4 4.32 4 5 4 C5.66 5.65 6.32 7.3 7 9 C5.68 8.67 4.36 8.34 3 8 C2.67 6.68 2.34 5.36 2 4 C1.34 4 0.68 4 0 4 C0 2.68 0 1.36 0 0 Z " fill="#4A67F2" transform="translate(202,76)"/>
<path d="M0 0 C0.66 0 1.32 0 2 0 C2 0.66 2 1.32 2 2 C4.97 2.33 7.94 2.66 11 3 C11 3.33 11 3.66 11 4 C7.37 4.33 3.74 4.66 0 5 C0 3.35 0 1.7 0 0 Z " fill="#5D76EA" transform="translate(213,33)"/>
<path d="M0 0 C0.33 0 0.66 0 1 0 C1 1.98 1 3.96 1 6 C1.66 6 2.32 6 3 6 C3.66 7.65 4.32 9.3 5 11 C3.125 10.375 3.125 10.375 1 9 C-0.62344752 5.36656983 -1.27596315 3.82788944 0 0 Z " fill="#5B6FD1" transform="translate(87,26)"/>
<path d="M0 0 C1.43655854 -0.08131463 2.8744483 -0.13933559 4.3125 -0.1875 C5.51326172 -0.23970703 5.51326172 -0.23970703 6.73828125 -0.29296875 C9.47851584 0.06198392 10.29171079 0.89366282 12 3 C10.02 3 8.04 3 6 3 C6 2.34 6 1.68 6 1 C4.02 1 2.04 1 0 1 C0 0.67 0 0.34 0 0 Z " fill="#5A71E4" transform="translate(137,40)"/>
<path d="M0 0 C2.125 0.375 2.125 0.375 4 1 C2.35830472 3.02054804 0.69088222 5.02043058 -1 7 C-1.33 7 -1.66 7 -2 7 C-2.125 4.625 -2.125 4.625 -2 2 C-1.34 1.34 -0.68 0.68 0 0 Z " fill="#5971EA" transform="translate(90,23)"/>
<path d="M0 0 C0.66 0.33 1.32 0.66 2 1 C-0.31 2.65 -2.62 4.3 -5 6 C-5.66 5.67 -6.32 5.34 -7 5 C-4.63707344 2.47411298 -3.33537489 1.11179163 0 0 Z " fill="#5A6DDF" transform="translate(266,88)"/>
<path d="M0 0 C0.66 0 1.32 0 2 0 C2 0.66 2 1.32 2 2 C2.99 2.33 3.98 2.66 5 3 C4.34 3.66 3.68 4.32 3 5 C0.875 4.625 0.875 4.625 -1 4 C-0.67 2.68 -0.34 1.36 0 0 Z " fill="#5972EB" transform="translate(96,32)"/>
<path d="M0 0 C1.5 1.125 1.5 1.125 3 3 C3.1875 6.1875 3.1875 6.1875 3 9 C2.01 9.495 2.01 9.495 1 10 C1.04125 9.21625 1.0825 8.4325 1.125 7.625 C1.28728734 4.83883881 1.28728734 4.83883881 -1 3 C-0.67 2.01 -0.34 1.02 0 0 Z " fill="#5E71D8" transform="translate(100,24)"/>
</svg>
