<?xml version="1.0" encoding="UTF-8"?>
<svg version="1.1" xmlns="http://www.w3.org/2000/svg" width="292" height="111">
<path d="M0 0 C96.36 0 192.72 0 292 0 C292 36.63 292 73.26 292 111 C195.64 111 99.28 111 0 111 C0 74.37 0 37.74 0 0 Z " fill="#FEFEFF" transform="translate(0,0)"/>
<path d="M0 0 C10.52280057 5.77221585 16.86982875 15.52797211 20.703125 26.64453125 C23.36497472 39.12347808 21.18169782 50.70969294 14.453125 61.51953125 C7.19881643 70.58741696 -1.32324165 76.93801298 -12.546875 80.01953125 C-25.72189133 81.36375834 -36.33348954 80.00813248 -47.12109375 72.0390625 C-53.54154516 66.69385577 -58.37099685 60.75483844 -61.546875 53.01953125 C-61.8975 52.26800781 -62.248125 51.51648438 -62.609375 50.7421875 C-63.77378442 47.36054848 -63.97189307 44.27337568 -64.171875 40.70703125 C-64.24664062 39.45277344 -64.32140625 38.19851562 -64.3984375 36.90625 C-64.44742188 35.95363281 -64.49640625 35.00101563 -64.546875 34.01953125 C-66.856875 36.65953125 -69.166875 39.29953125 -71.546875 42.01953125 C-69.49529638 45.56825065 -67.25931569 48.82371262 -64.75390625 52.06640625 C-64.04169922 52.99324219 -63.32949219 53.92007813 -62.59570312 54.875 C-61.85771484 55.83019531 -61.11972656 56.78539062 -60.359375 57.76953125 C-58.88455247 59.67931864 -57.41177493 61.59068767 -55.94140625 63.50390625 C-55.29018799 64.34663086 -54.63896973 65.18935547 -53.96801758 66.05761719 C-52.546875 68.01953125 -52.546875 68.01953125 -52.546875 69.01953125 C-58.25894333 70.20205387 -63.96649356 71.15637475 -69.546875 69.01953125 C-75.98750966 63.56316514 -80.79354662 55.526188 -84.546875 48.01953125 C-84.876875 54.94953125 -85.206875 61.87953125 -85.546875 69.01953125 C-90.166875 69.01953125 -94.786875 69.01953125 -99.546875 69.01953125 C-99.546875 48.22953125 -99.546875 27.43953125 -99.546875 6.01953125 C-94.926875 6.01953125 -90.306875 6.01953125 -85.546875 6.01953125 C-85.216875 16.24953125 -84.886875 26.47953125 -84.546875 37.01953125 C-80.31916055 32.14993564 -80.31916055 32.14993564 -76.14282227 27.23657227 C-72.86523805 23.59529566 -70.80806487 21.65331799 -65.80078125 21.3671875 C-65.04563232 21.34293701 -64.2904834 21.31868652 -63.51245117 21.29370117 C-61.25951061 21.1863159 -61.25951061 21.1863159 -59.3828125 18.76171875 C-58.90070313 17.81554687 -58.41859375 16.869375 -57.921875 15.89453125 C-45.90080849 -5.20366711 -21.14482318 -10.39808743 0 0 Z " fill="#5473FF" transform="translate(262.546875,17.98046875)"/>
<path d="M0 0 C4.32302151 2.4581887 6.40050667 4.8929955 8.28076172 9.47900391 C9.32667692 13.32416443 9.43999453 16.88769971 9.3828125 20.8359375 C9.3799826 21.58211334 9.37715271 22.32828918 9.37423706 23.09707642 C9.36311687 25.46071988 9.33802821 27.82397268 9.3125 30.1875 C9.30245962 31.79817158 9.29333562 33.40884915 9.28515625 35.01953125 C9.2632044 38.95066944 9.22873185 42.88151867 9.1875 46.8125 C4.5675 46.8125 -0.0525 46.8125 -4.8125 46.8125 C-4.86148438 44.53730469 -4.91046875 42.26210937 -4.9609375 39.91796875 C-5.01495239 37.71371908 -5.07225777 35.50957782 -5.12988281 33.30541992 C-5.16815798 31.77392661 -5.20301349 30.24234385 -5.234375 28.71069336 C-5.28005807 26.5086267 -5.33804537 24.30717504 -5.3984375 22.10546875 C-5.40998871 21.42099167 -5.42153992 20.73651459 -5.43344116 20.03129578 C-5.54523744 16.42789163 -5.75644553 14.8965817 -7.8125 11.8125 C-9.94738276 11.37317135 -9.94738276 11.37317135 -12.3125 11.5 C-13.50359375 11.50580078 -13.50359375 11.50580078 -14.71875 11.51171875 C-17.02983036 11.63024835 -17.02983036 11.63024835 -18.8125 13.8125 C-19.05765697 16.31625468 -19.18583658 18.71799479 -19.2265625 21.2265625 C-19.24592865 21.95620209 -19.2652948 22.68584167 -19.2852478 23.43759155 C-19.34508422 25.77077502 -19.39144423 28.10400773 -19.4375 30.4375 C-19.47567614 32.01825082 -19.51472765 33.59898076 -19.5546875 35.1796875 C-19.65078878 39.0571223 -19.73480412 42.93465449 -19.8125 46.8125 C-24.4325 46.8125 -29.0525 46.8125 -33.8125 46.8125 C-33.8125 31.3025 -33.8125 15.7925 -33.8125 -0.1875 C-29.1925 -0.1875 -24.5725 -0.1875 -19.8125 -0.1875 C-19.4825 0.8025 -19.1525 1.7925 -18.8125 2.8125 C-18.008125 2.1525 -17.20375 1.4925 -16.375 0.8125 C-11.11894121 -2.67087859 -5.76862126 -1.79678367 0 0 Z " fill="#5775FF" transform="translate(145.8125,40.1875)"/>
<path d="M0 0 C4.95 0 9.9 0 15 0 C15.49371094 1.57652344 15.98742188 3.15304688 16.49609375 4.77734375 C17.14306691 6.8307803 17.79021114 8.88416295 18.4375 10.9375 C18.92573242 12.49887695 18.92573242 12.49887695 19.42382812 14.09179688 C19.73642578 15.08115234 20.04902344 16.07050781 20.37109375 17.08984375 C20.65911865 18.00628662 20.94714355 18.92272949 21.24389648 19.86694336 C21.81203937 21.95544926 21.81203937 21.95544926 23 23 C23.20681396 22.3387915 23.41362793 21.67758301 23.62670898 20.99633789 C24.56043664 18.01737694 25.4989024 15.03992995 26.4375 12.0625 C26.76298828 11.02158203 27.08847656 9.98066406 27.42382812 8.90820312 C27.73642578 7.91884766 28.04902344 6.92949219 28.37109375 5.91015625 C28.65911865 4.99371338 28.94714355 4.07727051 29.24389648 3.13305664 C30 1 30 1 31 0 C33.35313555 -0.07271741 35.70833668 -0.08370868 38.0625 -0.0625 C39.35285156 -0.05347656 40.64320312 -0.04445312 41.97265625 -0.03515625 C42.97167969 -0.02355469 43.97070312 -0.01195312 45 0 C44.23277885 5.03842883 42.41000995 9.66260037 40.65625 14.421875 C40.32709595 15.32246643 39.99794189 16.22305786 39.65881348 17.15093994 C38.96457718 19.04772646 38.26853392 20.94385247 37.57080078 22.83935547 C36.49933373 25.75181106 35.43481469 28.66673884 34.37109375 31.58203125 C33.69572371 33.42462994 33.01995634 35.26708306 32.34375 37.109375 C32.02394165 37.98535339 31.7041333 38.86133179 31.37463379 39.76385498 C31.07762573 40.56849182 30.78061768 41.37312866 30.47460938 42.20214844 C30.2133728 42.9132074 29.95213623 43.62426636 29.6829834 44.35687256 C29 46 29 46 28 47 C26.14712498 47.07226502 24.29166122 47.0838122 22.4375 47.0625 C21.42558594 47.05347656 20.41367187 47.04445312 19.37109375 47.03515625 C18.19740234 47.01775391 18.19740234 47.01775391 17 47 C14.73664353 40.95050758 12.47665142 34.89976617 10.21899414 28.84814453 C9.45056328 26.78958689 8.68136264 24.73131642 7.91137695 22.67333984 C6.8047765 19.71527054 5.70094821 16.75617962 4.59765625 13.796875 C4.25283707 12.87694763 3.90801788 11.95702026 3.55274963 11.00921631 C3.23249313 10.1486261 2.91223663 9.28803589 2.58227539 8.40136719 C2.30025772 7.64635925 2.01824005 6.89135132 1.72767639 6.11346436 C1.03828308 4.11118943 0.51360136 2.05440543 0 0 Z " fill="#5574FF" transform="translate(12,40)"/>
<path d="M0 0 C4.62 0 9.24 0 14 0 C14 5.28 14 10.56 14 16 C16.64 16 19.28 16 22 16 C22 19.63 22 23.26 22 27 C19.36 27 16.72 27 14 27 C14.33 34.92 14.66 42.84 15 51 C18.465 51.495 18.465 51.495 22 52 C22 55.63 22 59.26 22 63 C19.43635517 63.10845031 16.87733721 63.18749744 14.3125 63.25 C13.59126953 63.28351563 12.87003906 63.31703125 12.12695312 63.3515625 C8.26270336 63.4221424 6.41925648 63.25919687 3.04296875 61.171875 C-0.42275996 57.48746742 -0.11885241 54.21720255 -0.09765625 49.36328125 C-0.09443359 48.06455078 -0.09121094 46.76582031 -0.08789062 45.42773438 C-0.07953531 44.05598892 -0.07107037 42.68424413 -0.0625 41.3125 C-0.05748335 39.92903805 -0.05292073 38.54557437 -0.04882812 37.16210938 C-0.03702529 33.77469605 -0.02056019 30.38736967 0 27 C-1.98 27 -3.96 27 -6 27 C-6 23.37 -6 19.74 -6 16 C-4.02 16 -2.04 16 0 16 C0 10.72 0 5.44 0 0 Z " fill="#FCFDFF" transform="translate(241,24)"/>
<path d="M0 0 C4.62 0 9.24 0 14 0 C14.33 16.83 14.66 33.66 15 51 C16.65 51.33 18.3 51.66 20 52 C20 55.63 20 59.26 20 63 C17.77191841 63.10853983 15.54230068 63.18583307 13.3125 63.25 C12.07113281 63.29640625 10.82976562 63.3428125 9.55078125 63.390625 C5.41565531 62.93571566 3.8656606 61.95604322 1 59 C-0.03444628 55.89666117 -0.12083424 53.77123751 -0.11352539 50.51879883 C-0.11344986 49.39786331 -0.11337433 48.2769278 -0.11329651 47.12202454 C-0.10813522 45.91257675 -0.10297394 44.70312897 -0.09765625 43.45703125 C-0.0962413 42.21829758 -0.09482635 40.9795639 -0.09336853 39.70329285 C-0.08871602 36.41368463 -0.0797339 33.1241254 -0.06866455 29.83453369 C-0.05842629 26.47628377 -0.05386574 23.11802667 -0.04882812 19.75976562 C-0.03779145 13.1731554 -0.0205229 6.58658722 0 0 Z " fill="#5573FF" transform="translate(62,24)"/>
<path d="M0 0 C4.62 0 9.24 0 14 0 C14 15.51 14 31.02 14 47 C9.38 47 4.76 47 0 47 C0 31.49 0 15.98 0 0 Z " fill="#FAFBFF" transform="translate(215,40)"/>
<path d="M0 0 C4.62 0 9.24 0 14 0 C14 15.51 14 31.02 14 47 C9.38 47 4.76 47 0 47 C0 31.49 0 15.98 0 0 Z " fill="#5775FF" transform="translate(89,40)"/>
<path d="M0 0 C2.4375 1 2.4375 1 4 3 C4.56111226 5.77663799 4.56111226 8.22336201 4 11 C1.72045596 13.91781637 0.17436907 13.97820387 -3.5 14.4375 C-7 14 -7 14 -9.4375 12.375 C-11.47161336 9.28314769 -11.60605429 7.63632575 -11 4 C-8.04627097 -0.48966812 -5.14336369 -0.64292046 0 0 Z " fill="#F9FAFF" transform="translate(225,23)"/>
<path d="M0 0 C2.4375 1 2.4375 1 4 3 C4.56111226 5.77663799 4.56111226 8.22336201 4 11 C1.72045596 13.91781637 0.17436907 13.97820387 -3.5 14.4375 C-7 14 -7 14 -9.4375 12.375 C-11.47161336 9.28314769 -11.60605429 7.63632575 -11 4 C-8.04627097 -0.48966812 -5.14336369 -0.64292046 0 0 Z " fill="#5775FF" transform="translate(99,23)"/>
<path d="M0 0 C0.33 0 0.66 0 1 0 C1.03867188 1.46759766 1.03867188 1.46759766 1.078125 2.96484375 C1.57547779 14.46047523 4.16366524 21.72607138 10.73046875 31.15234375 C12 33 12 33 13 35 C9.5144611 33.56159151 7.85215337 31.85815933 5.65234375 28.82421875 C5.04712891 27.99599609 4.44191406 27.16777344 3.81835938 26.31445312 C2.88733398 25.01411133 2.88733398 25.01411133 1.9375 23.6875 C1.31294922 22.83220703 0.68839844 21.97691406 0.04492188 21.09570312 C-2.81920405 17.14950615 -5.53086323 13.20834455 -8 9 C-6.69088122 7.49704815 -5.37761608 5.99770689 -4.0625 4.5 C-3.33160156 3.6646875 -2.60070312 2.829375 -1.84765625 1.96875 C-1.23792969 1.3190625 -0.62820312 0.669375 0 0 Z " fill="#F2F4FF" transform="translate(198,51)"/>
<path d="M0 0 C2.14481827 2.81266588 4.16531633 5.68055066 6.125 8.625 C6.64320313 9.40101562 7.16140625 10.17703125 7.6953125 10.9765625 C9 13 9 13 10 15 C6.19299032 13.50589642 4.50238376 11.3813123 2.1875 8.0625 C1.56230469 7.18722656 0.93710938 6.31195313 0.29296875 5.41015625 C-0.13371094 4.61480469 -0.56039062 3.81945312 -1 3 C-0.67 2.01 -0.34 1.02 0 0 Z " fill="#D8DFFF" transform="translate(201,71)"/>
</svg>
