<?xml version="1.0" encoding="UTF-8"?>
<svg version="1.1" xmlns="http://www.w3.org/2000/svg" width="292" height="111">
<path d="M0 0 C96.36 0 192.72 0 292 0 C292 36.63 292 73.26 292 111 C195.64 111 99.28 111 0 111 C0 74.37 0 37.74 0 0 Z " fill="#FEFEFF" transform="translate(0,0)"/>
<path d="M0 0 C10.52280057 5.77221585 16.86982875 15.52797211 20.703125 26.64453125 C23.36497472 39.12347808 21.18169782 50.70969294 14.453125 61.51953125 C7.19881643 70.58741696 -1.32324165 76.93801298 -12.546875 80.01953125 C-25.72189133 81.36375834 -36.33348954 80.00813248 -47.12109375 72.0390625 C-53.54154516 66.69385577 -58.37099685 60.75483844 -61.546875 53.01953125 C-61.89621094 52.27703125 -62.24554688 51.53453125 -62.60546875 50.76953125 C-64.57444666 45.01782815 -64.97265301 37.97773455 -63.546875 32.01953125 C-61.05963177 28.25244441 -58.20680702 25.63376841 -54.546875 23.01953125 C-56.526875 22.68953125 -58.506875 22.35953125 -60.546875 22.01953125 C-58.79525275 13.18180081 -51.63863174 6.08192059 -44.546875 1.01953125 C-29.61677748 -7.03512645 -15.16303573 -7.45650933 0 0 Z " fill="#5473FF" transform="translate(261.546875,17.98046875)"/>
<path d="M0 0 C4.62 0 9.24 0 14 0 C14 5.28 14 10.56 14 16 C16.64 16 19.28 16 22 16 C22 19.63 22 23.26 22 27 C19.36 27 16.72 27 14 27 C14.33 34.92 14.66 42.84 15 51 C18.465 51.495 18.465 51.495 22 52 C22 55.63 22 59.26 22 63 C19.43635517 63.10845031 16.87733721 63.18749744 14.3125 63.25 C13.59126953 63.28351563 12.87003906 63.31703125 12.12695312 63.3515625 C8.26270336 63.4221424 6.41925648 63.25919687 3.04296875 61.171875 C-0.42275996 57.48746742 -0.11885241 54.21720255 -0.09765625 49.36328125 C-0.09443359 48.06455078 -0.09121094 46.76582031 -0.08789062 45.42773438 C-0.07953531 44.05598892 -0.07107037 42.68424413 -0.0625 41.3125 C-0.05748335 39.92903805 -0.05292073 38.54557437 -0.04882812 37.16210938 C-0.03702529 33.77469605 -0.02056019 30.38736967 0 27 C-1.98 27 -3.96 27 -6 27 C-6 23.37 -6 19.74 -6 16 C-4.02 16 -2.04 16 0 16 C0 10.72 0 5.44 0 0 Z " fill="#FCFDFF" transform="translate(240,24)"/>
<path d="M0 0 C4.62 0 9.24 0 14 0 C14 15.51 14 31.02 14 47 C9.38 47 4.76 47 0 47 C0 31.49 0 15.98 0 0 Z " fill="#FAFBFF" transform="translate(214,40)"/>
<path d="M0 0 C2.4375 1 2.4375 1 4 3 C4.56111226 5.77663799 4.56111226 8.22336201 4 11 C1.72045596 13.91781637 0.17436907 13.97820387 -3.5 14.4375 C-7 14 -7 14 -9.4375 12.375 C-11.47161336 9.28314769 -11.60605429 7.63632575 -11 4 C-8.04627097 -0.48966812 -5.14336369 -0.64292046 0 0 Z " fill="#F9FAFF" transform="translate(224,23)"/>
</svg>
