<?xml version="1.0" encoding="UTF-8"?>
<svg version="1.1" xmlns="http://www.w3.org/2000/svg" width="292" height="111">
<path d="M0 0 C96.36 0 192.72 0 292 0 C292 36.63 292 73.26 292 111 C195.64 111 99.28 111 0 111 C0 74.37 0 37.74 0 0 Z " fill="#010101" transform="translate(0,0)"/>
<path d="M0 0 C10.52280057 5.77221585 16.86982875 15.52797211 20.703125 26.64453125 C23.36497472 39.12347808 21.18169782 50.70969294 14.453125 61.51953125 C7.19881643 70.58741696 -1.32324165 76.93801298 -12.546875 80.01953125 C-25.72189133 81.36375834 -36.33348954 80.00813248 -47.12109375 72.0390625 C-53.54154516 66.69385577 -58.37099685 60.75483844 -61.546875 53.01953125 C-61.9078125 52.26800781 -62.26875 51.51648438 -62.640625 50.7421875 C-63.78963878 47.29019352 -63.73971981 44.33672832 -63.671875 40.70703125 C-63.65382812 39.45277344 -63.63578125 38.19851562 -63.6171875 36.90625 C-63.59398437 35.95363281 -63.57078125 35.00101563 -63.546875 34.01953125 C-66.48609861 36.87931638 -69.13370097 39.70760912 -71.546875 43.01953125 C-71.07789795 43.62949951 -70.6089209 44.23946777 -70.12573242 44.86791992 C-67.9925648 47.64555065 -65.86343721 50.42625266 -63.734375 53.20703125 C-62.99638672 54.16673828 -62.25839844 55.12644531 -61.49804688 56.11523438 C-60.78583984 57.04658203 -60.07363281 57.97792969 -59.33984375 58.9375 C-58.6852417 59.79110107 -58.03063965 60.64470215 -57.35620117 61.52416992 C-55.59708424 63.95028437 -54.04715785 66.42702624 -52.546875 69.01953125 C-58.25894333 70.20205387 -63.96649356 71.15637475 -69.546875 69.01953125 C-75.98750966 63.56316514 -80.79354662 55.526188 -84.546875 48.01953125 C-84.876875 54.94953125 -85.206875 61.87953125 -85.546875 69.01953125 C-90.166875 69.01953125 -94.786875 69.01953125 -99.546875 69.01953125 C-99.546875 48.22953125 -99.546875 27.43953125 -99.546875 6.01953125 C-94.926875 6.01953125 -90.306875 6.01953125 -85.546875 6.01953125 C-85.216875 16.24953125 -84.886875 26.47953125 -84.546875 37.01953125 C-80.31916055 32.14993564 -80.31916055 32.14993564 -76.14282227 27.23657227 C-72.86523805 23.59529566 -70.80806487 21.65331799 -65.80078125 21.3671875 C-65.04563232 21.34293701 -64.2904834 21.31868652 -63.51245117 21.29370117 C-61.25951061 21.1863159 -61.25951061 21.1863159 -59.3828125 18.76171875 C-58.90070313 17.81554687 -58.41859375 16.869375 -57.921875 15.89453125 C-45.90080849 -5.20366711 -21.14482318 -10.39808743 0 0 Z " fill="#5271FC" transform="translate(260.546875,17.98046875)"/>
<path d="M0 0 C4.62 0 9.24 0 14 0 C14.33 10.23 14.66 20.46 15 31 C16.959375 28.525 18.91875 26.05 20.9375 23.5 C24.66251899 19.17168057 27.8450752 15.70741262 33.71484375 15.00390625 C37.8769193 14.90012463 41.89632324 15.32930223 46 16 C42.1893921 20.57272948 38.24620021 24.81033595 33.9296875 28.91015625 C31.61550301 31.41640868 29.83264692 34.12885316 28 37 C28.46897705 37.60996826 28.9379541 38.21993652 29.42114258 38.84838867 C31.5543102 41.6260194 33.68343779 44.40672141 35.8125 47.1875 C36.55048828 48.14720703 37.28847656 49.10691406 38.04882812 50.09570312 C38.76103516 51.02705078 39.47324219 51.95839844 40.20703125 52.91796875 C41.18893433 54.19837036 41.18893433 54.19837036 42.19067383 55.50463867 C43.94979076 57.93075312 45.49971715 60.40749499 47 63 C41.28793167 64.18252262 35.58038144 65.1368435 30 63 C23.55936534 57.54363389 18.75332838 49.50665675 15 42 C14.67 48.93 14.34 55.86 14 63 C9.38 63 4.76 63 0 63 C0 42.21 0 21.42 0 0 Z " fill="#FAFAFA" transform="translate(161,24)"/>
<path d="M0 0 C4.32302151 2.4581887 6.40050667 4.8929955 8.28076172 9.47900391 C9.32667692 13.32416443 9.43999453 16.88769971 9.3828125 20.8359375 C9.3799826 21.58211334 9.37715271 22.32828918 9.37423706 23.09707642 C9.36311687 25.46071988 9.33802821 27.82397268 9.3125 30.1875 C9.30245962 31.79817158 9.29333562 33.40884915 9.28515625 35.01953125 C9.2632044 38.95066944 9.22873185 42.88151867 9.1875 46.8125 C4.5675 46.8125 -0.0525 46.8125 -4.8125 46.8125 C-4.86148438 44.53730469 -4.91046875 42.26210937 -4.9609375 39.91796875 C-5.01495239 37.71371908 -5.07225777 35.50957782 -5.12988281 33.30541992 C-5.16815798 31.77392661 -5.20301349 30.24234385 -5.234375 28.71069336 C-5.28005807 26.5086267 -5.33804537 24.30717504 -5.3984375 22.10546875 C-5.40998871 21.42099167 -5.42153992 20.73651459 -5.43344116 20.03129578 C-5.54523744 16.42789163 -5.75644553 14.8965817 -7.8125 11.8125 C-9.94738276 11.37317135 -9.94738276 11.37317135 -12.3125 11.5 C-13.50359375 11.50580078 -13.50359375 11.50580078 -14.71875 11.51171875 C-17.02983036 11.63024835 -17.02983036 11.63024835 -18.8125 13.8125 C-19.05765697 16.31625468 -19.18583658 18.71799479 -19.2265625 21.2265625 C-19.24592865 21.95620209 -19.2652948 22.68584167 -19.2852478 23.43759155 C-19.34508422 25.77077502 -19.39144423 28.10400773 -19.4375 30.4375 C-19.47567614 32.01825082 -19.51472765 33.59898076 -19.5546875 35.1796875 C-19.65078878 39.0571223 -19.73480412 42.93465449 -19.8125 46.8125 C-24.4325 46.8125 -29.0525 46.8125 -33.8125 46.8125 C-33.8125 31.3025 -33.8125 15.7925 -33.8125 -0.1875 C-29.1925 -0.1875 -24.5725 -0.1875 -19.8125 -0.1875 C-19.4825 0.8025 -19.1525 1.7925 -18.8125 2.8125 C-18.008125 2.1525 -17.20375 1.4925 -16.375 0.8125 C-11.11894121 -2.67087859 -5.76862126 -1.79678367 0 0 Z " fill="#F8F8F8" transform="translate(143.8125,40.1875)"/>
<path d="M0 0 C4.95 0 9.9 0 15 0 C15.49371094 1.57652344 15.98742188 3.15304688 16.49609375 4.77734375 C17.14306691 6.8307803 17.79021114 8.88416295 18.4375 10.9375 C18.92573242 12.49887695 18.92573242 12.49887695 19.42382812 14.09179688 C19.73642578 15.08115234 20.04902344 16.07050781 20.37109375 17.08984375 C20.65911865 18.00628662 20.94714355 18.92272949 21.24389648 19.86694336 C21.81203937 21.95544926 21.81203937 21.95544926 23 23 C23.20681396 22.3387915 23.41362793 21.67758301 23.62670898 20.99633789 C24.56043664 18.01737694 25.4989024 15.03992995 26.4375 12.0625 C26.76298828 11.02158203 27.08847656 9.98066406 27.42382812 8.90820312 C27.73642578 7.91884766 28.04902344 6.92949219 28.37109375 5.91015625 C28.65911865 4.99371338 28.94714355 4.07727051 29.24389648 3.13305664 C30 1 30 1 31 0 C33.35313555 -0.07271741 35.70833668 -0.08370868 38.0625 -0.0625 C39.35285156 -0.05347656 40.64320312 -0.04445312 41.97265625 -0.03515625 C42.97167969 -0.02355469 43.97070312 -0.01195312 45 0 C44.23277885 5.03842883 42.41000995 9.66260037 40.65625 14.421875 C40.32709595 15.32246643 39.99794189 16.22305786 39.65881348 17.15093994 C38.96457718 19.04772646 38.26853392 20.94385247 37.57080078 22.83935547 C36.49933373 25.75181106 35.43481469 28.66673884 34.37109375 31.58203125 C33.69572371 33.42462994 33.01995634 35.26708306 32.34375 37.109375 C32.02394165 37.98535339 31.7041333 38.86133179 31.37463379 39.76385498 C31.07762573 40.56849182 30.78061768 41.37312866 30.47460938 42.20214844 C30.2133728 42.9132074 29.95213623 43.62426636 29.6829834 44.35687256 C29 46 29 46 28 47 C26.14712498 47.07226502 24.29166122 47.0838122 22.4375 47.0625 C21.42558594 47.05347656 20.41367187 47.04445312 19.37109375 47.03515625 C18.19740234 47.01775391 18.19740234 47.01775391 17 47 C14.57432456 40.62967713 12.15376932 34.2574264 9.73681641 27.88378906 C8.91345991 25.71439258 8.08891882 23.54544531 7.26318359 21.37695312 C6.07860868 18.26548865 4.89826036 15.15244981 3.71875 12.0390625 C3.16096863 10.57806625 3.16096863 10.57806625 2.59191895 9.08755493 C2.25156616 8.18677216 1.91121338 7.28598938 1.56054688 6.35791016 C1.2585437 5.56293121 0.95654053 4.76795227 0.64538574 3.94888306 C0 2 0 2 0 0 Z " fill="#F9F9F9" transform="translate(10,40)"/>
<path d="M0 0 C4.62 0 9.24 0 14 0 C14 5.28 14 10.56 14 16 C16.64 16 19.28 16 22 16 C22 19.63 22 23.26 22 27 C19.36 27 16.72 27 14 27 C14.33 34.92 14.66 42.84 15 51 C18.465 51.495 18.465 51.495 22 52 C22 55.63 22 59.26 22 63 C19.43635517 63.10845031 16.87733721 63.18749744 14.3125 63.25 C13.59126953 63.28351563 12.87003906 63.31703125 12.12695312 63.3515625 C8.26270336 63.4221424 6.41925648 63.25919687 3.04296875 61.171875 C-0.42275996 57.48746742 -0.11885241 54.21720255 -0.09765625 49.36328125 C-0.09443359 48.06455078 -0.09121094 46.76582031 -0.08789062 45.42773438 C-0.07953531 44.05598892 -0.07107037 42.68424413 -0.0625 41.3125 C-0.05748335 39.92903805 -0.05292073 38.54557437 -0.04882812 37.16210938 C-0.03702529 33.77469605 -0.02056019 30.38736967 0 27 C-1.98 27 -3.96 27 -6 27 C-6 23.37 -6 19.74 -6 16 C-4.02 16 -2.04 16 0 16 C0 10.72 0 5.44 0 0 Z " fill="#FCFDFF" transform="translate(239,24)"/>
<path d="M0 0 C4.62 0 9.24 0 14 0 C14.33 16.83 14.66 33.66 15 51 C16.65 51.33 18.3 51.66 20 52 C20 55.63 20 59.26 20 63 C17.77191841 63.10853983 15.54230068 63.18583307 13.3125 63.25 C12.07113281 63.29640625 10.82976562 63.3428125 9.55078125 63.390625 C5.41565531 62.93571566 3.8656606 61.95604322 1 59 C-0.03444628 55.89666117 -0.12083424 53.77123751 -0.11352539 50.51879883 C-0.11344986 49.39786331 -0.11337433 48.2769278 -0.11329651 47.12202454 C-0.10813522 45.91257675 -0.10297394 44.70312897 -0.09765625 43.45703125 C-0.0962413 42.21829758 -0.09482635 40.9795639 -0.09336853 39.70329285 C-0.08871602 36.41368463 -0.0797339 33.1241254 -0.06866455 29.83453369 C-0.05842629 26.47628377 -0.05386574 23.11802667 -0.04882812 19.75976562 C-0.03779145 13.1731554 -0.0205229 6.58658722 0 0 Z " fill="#FAFAFA" transform="translate(60,24)"/>
<path d="M0 0 C4.62 0 9.24 0 14 0 C14 15.51 14 31.02 14 47 C9.38 47 4.76 47 0 47 C0 31.49 0 15.98 0 0 Z " fill="#FAFBFF" transform="translate(213,40)"/>
<path d="M0 0 C4.62 0 9.24 0 14 0 C14 15.51 14 31.02 14 47 C9.38 47 4.76 47 0 47 C0 31.49 0 15.98 0 0 Z " fill="#F8F8F8" transform="translate(87,40)"/>
<path d="M0 0 C3 2.125 3 2.125 5 5 C5.07050215 8.5251077 4.68878725 10.20524549 2.375 12.875 C-0.97395179 14.46134558 -3.34026746 14.45746657 -7 14 C-9.4375 12.375 -9.4375 12.375 -11 10 C-11.60605429 6.36367425 -11.47161336 4.71685231 -9.4375 1.625 C-6.02544071 -0.64970619 -4.02388226 -0.63534983 0 0 Z " fill="#F7F8FF" transform="translate(223,23)"/>
<path d="M0 0 C3 2.125 3 2.125 5 5 C5.07050215 8.5251077 4.68878725 10.20524549 2.375 12.875 C-0.97395179 14.46134558 -3.34026746 14.45746657 -7 14 C-9.4375 12.375 -9.4375 12.375 -11 10 C-11.60605429 6.36367425 -11.47161336 4.71685231 -9.4375 1.625 C-6.02544071 -0.64970619 -4.02388226 -0.63534983 0 0 Z " fill="#F4F4F4" transform="translate(97,23)"/>
<path d="M0 0 C0.66 0 1.32 0 2 0 C2.03867188 1.35931641 2.03867188 1.35931641 2.078125 2.74609375 C2.60570992 14.07717888 5.32322562 20.9551112 11.73046875 30.15234375 C13 32 13 32 14 34 C10.5144611 32.56159151 8.85215337 30.85815933 6.65234375 27.82421875 C6.04712891 26.99599609 5.44191406 26.16777344 4.81835938 25.31445312 C3.88733398 24.01411133 3.88733398 24.01411133 2.9375 22.6875 C2.31294922 21.83220703 1.68839844 20.97691406 1.04492188 20.09570312 C-1.81920405 16.14950615 -4.53086323 12.20834455 -7 8 C-5.88200014 6.66079162 -4.75538103 5.32877444 -3.625 4 C-2.68527344 2.88625 -2.68527344 2.88625 -1.7265625 1.75 C-1.15679687 1.1725 -0.58703125 0.595 0 0 Z " fill="#0B0C10" transform="translate(195,52)"/>
<path d="M0 0 C2.14481827 2.81266588 4.16531633 5.68055066 6.125 8.625 C6.64320313 9.40101562 7.16140625 10.17703125 7.6953125 10.9765625 C9 13 9 13 10 15 C6.69906213 13.60068938 4.90818734 12.03783328 2.75 9.1875 C2.22921875 8.52105469 1.7084375 7.85460937 1.171875 7.16796875 C-0.21793527 4.59681976 -0.22119546 2.88056816 0 0 Z " fill="#24293D" transform="translate(199,71)"/>
</svg>
