<?xml version="1.0" encoding="UTF-8"?>
<svg version="1.1" xmlns="http://www.w3.org/2000/svg" width="292" height="111">
<path d="M0 0 C12.38080309 8.33883502 18.23233653 18.09403585 22.09375 32.3515625 C22.87937507 44.92156357 19.31488831 56.60026433 11.28125 66.3515625 C2.48098035 75.69234775 -8.09744659 81.10138257 -20.96875 81.6640625 C-32.58114406 81.3189389 -40.92707853 77.57318032 -49.94921875 70.63671875 C-53.10634054 69.17170737 -55.37306556 69.29943104 -58.79760742 69.59765625 C-68.25460829 70.40804959 -68.25460829 70.40804959 -72.3984375 67.41796875 C-74.42638985 64.82581954 -76.0821152 62.20456045 -77.71875 59.3515625 C-78.86518794 57.79479428 -80.03008526 56.25133244 -81.21875 54.7265625 C-82.04375 53.6128125 -82.86875 52.4990625 -83.71875 51.3515625 C-84.04875 57.2915625 -84.37875 63.2315625 -84.71875 69.3515625 C-89.66875 69.3515625 -94.61875 69.3515625 -99.71875 69.3515625 C-99.71875 48.5615625 -99.71875 27.7715625 -99.71875 6.3515625 C-94.76875 6.3515625 -89.81875 6.3515625 -84.71875 6.3515625 C-84.38875 15.9215625 -84.05875 25.4915625 -83.71875 35.3515625 C-77.16917651 29.23047369 -77.16917651 29.23047369 -74.40625 24.9765625 C-71.31717727 21.95932867 -70.74975084 22.07231691 -66.65625 21.9765625 C-64.04608811 21.9381432 -64.04608811 21.9381432 -61.71875 21.3515625 C-60.23017032 19.56155703 -59.58870293 17.83852424 -58.75 15.671875 C-55.07862627 7.41128412 -47.52157382 2.28887697 -39.71875 -1.6484375 C-38.96078125 -2.06222656 -38.2028125 -2.47601563 -37.421875 -2.90234375 C-25.43597338 -8.67407825 -11.10733586 -6.73462031 0 0 Z M-68.84375 38.1015625 C-69.40320313 38.61203125 -69.96265625 39.1225 -70.5390625 39.6484375 C-71.95229684 41.27380845 -71.95229684 41.27380845 -71.43530273 43.25585938 C-70.26339528 46.68333929 -67.89109995 49.30415747 -65.65625 52.1015625 C-65.18380859 52.70355469 -64.71136719 53.30554688 -64.22460938 53.92578125 C-63.06184599 55.40566193 -61.8910734 56.87924346 -60.71875 58.3515625 C-60.55738543 55.34469066 -60.55738543 55.34469066 -61.6484375 52.625 C-62.81188877 49.06670742 -63.35394191 45.68510947 -63.84375 41.9765625 C-64.01132813 40.73132812 -64.17890625 39.48609375 -64.3515625 38.203125 C-64.47273438 37.26210938 -64.59390625 36.32109375 -64.71875 35.3515625 C-66.52914196 35.3515625 -67.58360476 36.91761209 -68.84375 38.1015625 Z M-59.71875 58.3515625 C-58.71875 60.3515625 -58.71875 60.3515625 -58.71875 60.3515625 Z " fill="#5371F8" transform="translate(261.71875,17.6484375)"/>
<path d="M0 0 C4.95 0 9.9 0 15 0 C15.33 9.57 15.66 19.14 16 29 C22.55185449 22.86923625 22.55185449 22.86923625 25.35546875 18.5859375 C28.21221218 15.79248972 28.66927538 15.60270629 32.42578125 15.4140625 C34.05572351 15.45365624 35.68515779 15.52481634 37.3125 15.625 C38.14845703 15.65207031 38.98441406 15.67914063 39.84570312 15.70703125 C41.89825247 15.77740437 43.94946591 15.88501678 46 16 C43.12200971 19.42247494 40.2290972 22.78409339 37.1171875 25.99609375 C36.61485596 26.52170898 36.11252441 27.04732422 35.5949707 27.58886719 C34.58017404 28.64747617 33.55531191 29.69653474 32.52026367 30.73535156 C29.8396351 33.42889075 29.8396351 33.42889075 28.8828125 36.96484375 C30.55418568 40.00954804 32.64146734 42.67906817 34.8125 45.375 C38.07637578 49.47761038 41.10166296 53.62395502 44 58 C44.5775 58.5775 45.155 59.155 45.75 59.75 C47 61 47 61 47 63 C32.11264313 64.52257059 32.11264313 64.52257059 27.30078125 61.0546875 C25.28556642 58.46539379 23.63171424 55.84442039 22 53 C20.85356206 51.44323178 19.68866474 49.89976994 18.5 48.375 C17.675 47.26125 16.85 46.1475 16 45 C15.67 50.94 15.34 56.88 15 63 C10.05 63 5.1 63 0 63 C0 42.21 0 21.42 0 0 Z " fill="#FBFBFC" transform="translate(162,24)"/>
<path d="M0 0 C0.33 0.99 0.66 1.98 1 3 C1.66 3 2.32 3 3 3 C3 3.99 3 4.98 3 6 C3.639375 6.103125 4.27875 6.20625 4.9375 6.3125 C5.618125 6.539375 6.29875 6.76625 7 7 C8.06886392 10.20659176 7.9485432 11.35025969 7.25 14.5625 C7.01023437 15.74005859 7.01023437 15.74005859 6.765625 16.94140625 C6 19 6 19 3 21 C3.99 21.66 4.98 22.32 6 23 C6.36749268 25.01808167 6.36749268 25.01808167 6.35644531 27.52563477 C6.35944641 28.46323135 6.36244751 29.40082794 6.36553955 30.36683655 C6.35319275 31.38144455 6.34084595 32.39605255 6.328125 33.44140625 C6.32625183 34.47941879 6.32437866 35.51743134 6.32244873 36.5868988 C6.31571867 38.78346971 6.3017854 40.98002845 6.28125 43.17651367 C6.2500966 46.55203289 6.24028122 49.92708567 6.234375 53.30273438 C6.22520547 55.4322974 6.21482986 57.56185565 6.203125 59.69140625 C6.19675018 61.2163546 6.19675018 61.2163546 6.19024658 62.77210999 C6.18063904 63.70655441 6.17103149 64.64099884 6.16113281 65.60375977 C6.15430481 66.4304567 6.14747681 67.25715363 6.14044189 68.10890198 C6 70 6 70 5 71 C2.98035801 71.07244053 0.95832876 71.08377188 -1.0625 71.0625 C-2.16722656 71.05347656 -3.27195313 71.04445313 -4.41015625 71.03515625 C-5.26480469 71.02355469 -6.11945313 71.01195313 -7 71 C-7.33 71.66 -7.66 72.32 -8 73 C-14.04942966 68.25855513 -14.04942966 68.25855513 -16 66 C-16 65.34 -16 64.68 -16 64 C-16.66 64 -17.32 64 -18 64 C-22.77561014 55.26044468 -25.70600566 45.9755322 -26 36 C-24.67692597 32.66859449 -22.85148186 31.07894382 -20 29 C-19.02746068 28.03494175 -18.06758018 27.05684036 -17.125 26.0625 C-16.073125 25.0415625 -16.073125 25.0415625 -15 24 C-17.31 23.67 -19.62 23.34 -22 23 C-19.24842025 13.0943129 -12.41784099 5.89126038 -3.62890625 0.7421875 C-2 0 -2 0 0 0 Z " fill="#5471F6" transform="translate(222,17)"/>
<path d="M0 0 C2.15585146 1.41268528 4.25738095 2.86455302 6.328125 4.3984375 C2.16526903 6.47986549 -2.08705652 4.97153981 -6.671875 4.3984375 C-6.671875 10.0084375 -6.671875 15.6184375 -6.671875 21.3984375 C-4.691875 21.3984375 -2.711875 21.3984375 -0.671875 21.3984375 C-0.671875 21.7284375 -0.671875 22.0584375 -0.671875 22.3984375 C-2.981875 22.3984375 -5.291875 22.3984375 -7.671875 22.3984375 C-7.671875 17.1184375 -7.671875 11.8384375 -7.671875 6.3984375 C-12.291875 6.3984375 -16.911875 6.3984375 -21.671875 6.3984375 C-21.671875 11.6784375 -21.671875 16.9584375 -21.671875 22.3984375 C-23.651875 22.3984375 -25.631875 22.3984375 -27.671875 22.3984375 C-27.671875 26.0284375 -27.671875 29.6584375 -27.671875 33.3984375 C-25.691875 33.3984375 -23.711875 33.3984375 -21.671875 33.3984375 C-21.66776611 34.28104248 -21.66365723 35.16364746 -21.65942383 36.07299805 C-21.63237516 39.3631979 -21.58322549 42.65155148 -21.51928711 45.94116211 C-21.49615997 47.36194452 -21.48172374 48.78289708 -21.47631836 50.20385742 C-21.46698839 52.25286216 -21.42592334 54.299211 -21.37890625 56.34765625 C-21.3631958 57.57830811 -21.34748535 58.80895996 -21.33129883 60.0769043 C-20.49404777 64.29415739 -19.0306681 65.78658178 -15.671875 68.3984375 C-13.68255234 69.14941385 -13.68255234 69.14941385 -11.68359375 69.10546875 C-10.97783203 69.13447266 -10.27207031 69.16347656 -9.54492188 69.19335938 C-8.46307617 69.20206055 -8.46307617 69.20206055 -7.359375 69.2109375 C-6.61880859 69.23607422 -5.87824219 69.26121094 -5.11523438 69.28710938 C-3.30134531 69.34562193 -1.48655597 69.37498099 0.328125 69.3984375 C0.328125 65.7684375 0.328125 62.1384375 0.328125 58.3984375 C0.988125 58.3984375 1.648125 58.3984375 2.328125 58.3984375 C2.328125 62.0284375 2.328125 65.6584375 2.328125 69.3984375 C4.308125 68.9034375 4.308125 68.9034375 6.328125 68.3984375 C6.658125 67.7384375 6.988125 67.0784375 7.328125 66.3984375 C8.318125 67.3884375 8.318125 67.3884375 9.328125 68.3984375 C0.17089579 76.95845611 -10.45078688 82.00434803 -23.15234375 81.6484375 C-31.22158587 80.84776851 -40.66415485 79.35170702 -46.671875 73.3984375 C-46.671875 72.4084375 -46.671875 71.4184375 -46.671875 70.3984375 C-40.731875 69.9034375 -40.731875 69.9034375 -34.671875 69.3984375 C-34.59787598 62.74156141 -34.54334454 56.08492319 -34.50708008 49.42773438 C-34.49196696 47.16174145 -34.47147587 44.8957779 -34.44555664 42.62988281 C-34.40928438 39.37818161 -34.3921741 36.12686614 -34.37890625 32.875 C-34.36342239 31.85725494 -34.34793854 30.83950989 -34.33198547 29.79092407 C-34.33175888 28.85009979 -34.33153229 27.90927551 -34.33129883 26.93994141 C-34.32463699 26.10943268 -34.31797516 25.27892395 -34.31111145 24.42324829 C-34.43016342 23.75506073 -34.54921539 23.08687317 -34.671875 22.3984375 C-35.661875 21.7384375 -36.651875 21.0784375 -37.671875 20.3984375 C-36.681875 19.7384375 -35.691875 19.0784375 -34.671875 18.3984375 C-33.86851387 15.52084682 -33.86851387 15.52084682 -33.484375 12.2734375 C-33.32582031 11.17773438 -33.16726562 10.08203125 -33.00390625 8.953125 C-32.89433594 8.11007813 -32.78476563 7.26703125 -32.671875 6.3984375 C-33.290625 6.2746875 -33.909375 6.1509375 -34.546875 6.0234375 C-37.37609922 5.19131273 -38.60877984 3.46153266 -40.671875 1.3984375 C-39.671875 -1.6015625 -39.671875 -1.6015625 -37.94921875 -2.76953125 C-25.44199766 -8.2192553 -11.61824401 -6.96415211 0 0 Z " fill="#5371F5" transform="translate(261.671875,17.6015625)"/>
<path d="M0 0 C4.46588331 2.33249956 6.80013087 5.22673233 8.40405273 9.92675781 C9.04572618 13.38208845 8.96175478 16.8195783 8.9375 20.3203125 C8.93608505 21.09151428 8.9346701 21.86271606 8.93321228 22.6572876 C8.92762909 25.11271088 8.9150797 27.56804192 8.90234375 30.0234375 C8.89732658 31.69140493 8.89276405 33.35937379 8.88867188 35.02734375 C8.87766516 39.10941037 8.86041211 43.19140831 8.83984375 47.2734375 C3.88984375 47.2734375 -1.06015625 47.2734375 -6.16015625 47.2734375 C-6.20914063 44.99824219 -6.258125 42.72304687 -6.30859375 40.37890625 C-6.36260864 38.17465658 -6.41991402 35.97051532 -6.47753906 33.76635742 C-6.51581423 32.23486411 -6.55066974 30.70328135 -6.58203125 29.17163086 C-6.62771432 26.9695642 -6.68570162 24.76811254 -6.74609375 22.56640625 C-6.75764496 21.88192917 -6.76919617 21.19745209 -6.78109741 20.49223328 C-6.89289369 16.88882913 -7.10410178 15.3575192 -9.16015625 12.2734375 C-13.81161217 11.89318975 -13.81161217 11.89318975 -18.16015625 13.2734375 C-19.32418352 16.76551931 -19.37134133 19.66491522 -19.4765625 23.34765625 C-19.4973436 24.0314888 -19.51812469 24.71532135 -19.53953552 25.4198761 C-19.60481779 27.6001296 -19.66381642 29.78050155 -19.72265625 31.9609375 C-19.76586178 33.44076736 -19.80947672 34.92058533 -19.85351562 36.40039062 C-19.9612465 40.02462004 -20.06047732 43.64894188 -20.16015625 47.2734375 C-25.11015625 47.2734375 -30.06015625 47.2734375 -35.16015625 47.2734375 C-35.16015625 31.7634375 -35.16015625 16.2534375 -35.16015625 0.2734375 C-30.21015625 0.2734375 -25.26015625 0.2734375 -20.16015625 0.2734375 C-19.83015625 0.9334375 -19.50015625 1.5934375 -19.16015625 2.2734375 C-18.39703125 1.7784375 -17.63390625 1.2834375 -16.84765625 0.7734375 C-11.3776933 -1.45163217 -5.67840903 -1.90991696 0 0 Z " fill="#FCFCFC" transform="translate(145.16015625,39.7265625)"/>
<path d="M0 0 C4.95 0 9.9 0 15 0 C17.3645738 6.02966319 19.29335479 12.12989155 21.1328125 18.33984375 C21.74331325 20.89435559 21.74331325 20.89435559 23 22 C25.31 14.74 27.62 7.48 30 0 C35.28 0 40.56 0 46 0 C43.2527548 9.94727445 39.49403283 19.49595226 35.8125 29.125 C35.15137261 30.86185735 34.4905626 32.59883556 33.83007812 34.3359375 C32.22371016 38.55869468 30.61304804 42.77979027 29 47 C24.71 47 20.42 47 16 47 C13.71521236 40.7908921 11.43671513 34.57952664 9.1640625 28.3659668 C8.38975501 26.2517241 7.61372061 24.13811305 6.8359375 22.02514648 C5.71942747 18.99105897 4.60911112 15.95476747 3.5 12.91796875 C3.15001953 11.97100632 2.80003906 11.02404388 2.43945312 10.04838562 C1.95895508 8.72735588 1.95895508 8.72735588 1.46875 7.37963867 C1.18451172 6.60464523 0.90027344 5.82965179 0.60742188 5.03117371 C0 3 0 3 0 0 Z " fill="#FCFCFC" transform="translate(11,40)"/>
<path d="M0 0 C4.62 0 9.24 0 14 0 C14 5.28 14 10.56 14 16 C16.64 16 19.28 16 22 16 C22 19.63 22 23.26 22 27 C19.36 27 16.72 27 14 27 C14.33 34.92 14.66 42.84 15 51 C18.465 51.495 18.465 51.495 22 52 C22 55.63 22 59.26 22 63 C19.43635517 63.10845031 16.87733721 63.18749744 14.3125 63.25 C13.59126953 63.28351563 12.87003906 63.31703125 12.12695312 63.3515625 C8.22045657 63.42291404 6.43065666 63.27534719 3.04296875 61.109375 C-0.43672326 57.51657637 -0.11831821 55.1597349 -0.09765625 50.2421875 C-0.0962413 49.57913605 -0.09482635 48.91608459 -0.09336853 48.23294067 C-0.08776754 46.11358137 -0.075215 43.99432741 -0.0625 41.875 C-0.05748512 40.43880361 -0.05292219 39.00260556 -0.04882812 37.56640625 C-0.03779782 34.04423655 -0.02053259 30.52212855 0 27 C-1.98 27 -3.96 27 -6 27 C-6 23.37 -6 19.74 -6 16 C-4.02 16 -2.04 16 0 16 C0 10.72 0 5.44 0 0 Z " fill="#FAFDFD" transform="translate(240,24)"/>
<path d="M0 0 C4.95 0 9.9 0 15 0 C15 16.83 15 33.66 15 51 C16.65 51 18.3 51 20 51 C21 52 21 52 21.09765625 54.50390625 C21.08605469 55.51324219 21.07445313 56.52257812 21.0625 57.5625 C21.05347656 58.57441406 21.04445313 59.58632812 21.03515625 60.62890625 C21.02355469 61.41136719 21.01195313 62.19382813 21 63 C18.43571485 63.13559675 15.87864784 63.23433188 13.3125 63.3125 C12.59126953 63.35439453 11.87003906 63.39628906 11.12695312 63.43945312 C10.06831055 63.46362305 10.06831055 63.46362305 8.98828125 63.48828125 C8.34415283 63.51446533 7.70002441 63.54064941 7.03637695 63.56762695 C4.52793345 62.86841449 2.77520172 61.8294806 1.00617981 59.90803528 C-1.37631979 55.39006221 -0.59136927 49.78907863 -0.48828125 44.82421875 C-0.48120651 43.54392288 -0.47413177 42.26362701 -0.46684265 40.9445343 C-0.44781714 37.55254688 -0.39875838 34.16164226 -0.34332275 30.77008057 C-0.29203199 27.30455166 -0.26930789 23.83884653 -0.24414062 20.37304688 C-0.18903361 13.58150255 -0.10273564 6.79098412 0 0 Z " fill="#FCFCFC" transform="translate(61,24)"/>
<path d="M0 0 C4.95 0 9.9 0 15 0 C15 15.51 15 31.02 15 47 C10.05 47 5.1 47 0 47 C0 31.49 0 15.98 0 0 Z " fill="#FCFCFC" transform="translate(87,40)"/>
<path d="M0 0 C4.62 0 9.24 0 14 0 C14 15.51 14 31.02 14 47 C9.38 47 4.76 47 0 47 C0 31.49 0 15.98 0 0 Z " fill="#F7FAFE" transform="translate(214,40)"/>
<path d="M0 0 C0.33 0 0.66 0 1 0 C1 14.52 1 29.04 1 44 C-0.32 42.68 -1.64 41.36 -3 40 C-4.03447266 39.76796875 -4.03447266 39.76796875 -5.08984375 39.53125 C-7 39 -7 39 -8.37890625 37.09375 C-12.15946664 28.8089576 -14.74980788 20.13664555 -15 11 C-13.63021534 7.69011141 -11.86678056 6.05518058 -9 4 C-8.48953125 3.4534375 -7.9790625 2.906875 -7.453125 2.34375 C-6 1 -6 1 -3.375 0.875 C-2.59125 0.91625 -1.8075 0.9575 -1 1 C-0.67 0.67 -0.34 0.34 0 0 Z " fill="#5371FB" transform="translate(211,42)"/>
<path d="M0 0 C2.375 1.6875 2.375 1.6875 4 4 C4.60024477 7.60146865 4.45562482 9.27859404 2.5 12.375 C-1.01417791 14.65921564 -3.91899134 14.68715135 -8 14 C-10.95541622 12.56018184 -11.73563786 11.66971742 -12.9375 8.625 C-13.01960448 5.17661202 -12.11119108 3.69358862 -10 1 C-6.62055069 -1.56372016 -3.97046734 -1.15805297 0 0 Z " fill="#FBFBFB" transform="translate(99,23)"/>
<path d="M0 0 C3 2.125 3 2.125 5 5 C5.07050215 8.5251077 4.68878725 10.20524549 2.375 12.875 C-0.97395179 14.46134558 -3.34026746 14.45746657 -7 14 C-9.4375 12.375 -9.4375 12.375 -11 10 C-11.60605429 6.36367425 -11.47161336 4.71685231 -9.4375 1.625 C-6.02544071 -0.64970619 -4.02388226 -0.63534983 0 0 Z " fill="#F2F7FD" transform="translate(224,23)"/>
<path d="M0 0 C0.66 0 1.32 0 2 0 C2 15.51 2 31.02 2 47 C6.29 47 10.58 47 15 47 C15 47.33 15 47.66 15 48 C11.04 48 7.08 48 3 48 C2.67 48.66 2.34 49.32 2 50 C-4.04942966 45.25855513 -4.04942966 45.25855513 -6 43 C-6 42.34 -6 41.68 -6 41 C-2.125 42.875 -2.125 42.875 -1 44 C-0.67 29.48 -0.34 14.96 0 0 Z " fill="#6C80E2" transform="translate(212,40)"/>
<path d="M0 0 C0.33 0.99 0.66 1.98 1 3 C1.66 3 2.32 3 3 3 C3 3.99 3 4.98 3 6 C3.639375 6.103125 4.27875 6.20625 4.9375 6.3125 C5.618125 6.539375 6.29875 6.76625 7 7 C7.33 7.99 7.66 8.98 8 10 C7.01 10.495 7.01 10.495 6 11 C5.484375 10.34 4.96875 9.68 4.4375 9 C2.05912084 6.68459896 2.05912084 6.68459896 -1.5625 6.5625 C-4.88858333 6.71844238 -4.88858333 6.71844238 -6.8125 8.25 C-8.07011437 10.10332645 -9.08409002 11.9568162 -10 14 C-10.33 12.35 -10.66 10.7 -11 9 C-12.65 10.32 -14.3 11.64 -16 13 C-14.57646476 9.66863403 -12.8664687 7.72335243 -10.125 5.375 C-9.44695312 4.78460937 -8.76890625 4.19421875 -8.0703125 3.5859375 C-5.49216326 1.61097789 -3.3091516 0 0 0 Z " fill="#5971E7" transform="translate(222,17)"/>
<path d="M0 0 C0.99 0.495 0.99 0.495 2 1 C2 1.99 2 2.98 2 4 C2.66 4 3.32 4 4 4 C4.66 2.68 5.32 1.36 6 0 C6 3.63 6 7.26 6 11 C5.34 10.67 4.68 10.34 4 10 C4 8.68 4 7.36 4 6 C3.01 6 2.02 6 1 6 C1 19.2 1 32.4 1 46 C0.67 46 0.34 46 0 46 C0 30.82 0 15.64 0 0 Z " fill="#5B72DE" transform="translate(228,40)"/>
<path d="M0 0 C0.33 0 0.66 0 1 0 C1.01981934 0.79696289 1.03963867 1.59392578 1.06005859 2.41503906 C1.15533248 6.02702472 1.26500307 9.63843399 1.375 13.25 C1.4059375 14.50425781 1.436875 15.75851563 1.46875 17.05078125 C1.52675781 18.85869141 1.52675781 18.85869141 1.5859375 20.703125 C1.6173584 21.81333008 1.6487793 22.92353516 1.68115234 24.06738281 C1.99391854 26.94406545 2.38063688 28.62403256 4 31 C7.0334467 32.76727858 7.0334467 32.76727858 10 34 C10 34.66 10 35.32 10 36 C6.33447408 35.75007778 4.502579 35.48675373 1.82128906 32.88989258 C-0.44198698 29.29868634 -0.4624611 27.16958956 -0.390625 22.94921875 C-0.38496521 22.29041214 -0.37930542 21.63160553 -0.37347412 20.95283508 C-0.35121239 18.86362784 -0.3010433 16.77618227 -0.25 14.6875 C-0.22992144 13.26499886 -0.21167304 11.84247063 -0.1953125 10.41992188 C-0.15138359 6.9460492 -0.08243096 3.47319675 0 0 Z " fill="#D8E5FF" transform="translate(240,51)"/>
<path d="M0 0 C1.05477539 -0.00483398 1.05477539 -0.00483398 2.13085938 -0.00976562 C6.20372244 0.03222265 9.39939569 0.5132061 13.0625 2.3125 C9.88653161 4.19622214 7.74280919 4.51251885 4.078125 4.2890625 C3.14355469 4.2375 2.20898438 4.1859375 1.24609375 4.1328125 C0.27800781 4.06835938 -0.69007813 4.00390625 -1.6875 3.9375 C-2.67105469 3.88078125 -3.65460938 3.8240625 -4.66796875 3.765625 C-7.091911 3.62442448 -9.51477459 3.47304205 -11.9375 3.3125 C-8.03249404 0.0492503 -4.94842185 -0.11277169 0 0 Z " fill="#5066D6" transform="translate(239.9375,11.6875)"/>
<path d="M0 0 C0.33 1.32 0.66 2.64 1 4 C0.34 4 -0.32 4 -1 4 C-0.35541903 7.08359651 0.29088443 10.16682955 0.9375 13.25 C1.11990234 14.12269531 1.30230469 14.99539062 1.49023438 15.89453125 C1.66748047 16.73886719 1.84472656 17.58320312 2.02734375 18.453125 C2.18968506 19.22817383 2.35202637 20.00322266 2.51928711 20.80175781 C2.97361933 22.87936437 3.4726508 24.93984981 4 27 C-0.98275261 22.92320241 -1.4302457 16.34423857 -2.3125 10.3125 C-2.51488281 9.00925781 -2.71726563 7.70601562 -2.92578125 6.36328125 C-3 3 -3 3 -1.54296875 1.04296875 C-1.03378906 0.69878906 -0.52460938 0.35460938 0 0 Z " fill="#667CDB" transform="translate(199,49)"/>
<path d="M0 0 C0.515625 0.495 1.03125 0.99 1.5625 1.5 C4.87832303 3.54050648 7.16691031 3.34224015 11 3 C13.35369807 2.11935073 13.35369807 2.11935073 15 1 C14 4 14 4 12 5 C12.66 5.66 13.32 6.32 14 7 C9.38 7 4.76 7 0 7 C0.99 6.34 1.98 5.68 3 5 C1.68 4.01 0.36 3.02 -1 2 C-0.67 1.34 -0.34 0.68 0 0 Z " fill="#5F76E5" transform="translate(213,33)"/>
<path d="M0 0 C0.99 0.66 1.98 1.32 3 2 C1.8803014 3.00593243 0.7540588 4.0045849 -0.375 5 C-1.00148438 5.556875 -1.62796875 6.11375 -2.2734375 6.6875 C-4 8 -4 8 -6 8 C-6.33 7.01 -6.66 6.02 -7 5 C-6.34 5 -5.68 5 -5 5 C-5 4.34 -5 3.68 -5 3 C-3.35 2.67 -1.7 2.34 0 2 C0 1.34 0 0.68 0 0 Z " fill="#556DEA" transform="translate(268,84)"/>
<path d="M0 0 C1.65 0.33 3.3 0.66 5 1 C5 1.99 5 2.98 5 4 C5.639375 4.103125 6.27875 4.20625 6.9375 4.3125 C7.618125 4.539375 8.29875 4.76625 9 5 C9.33 5.99 9.66 6.98 10 8 C9.01 8.495 9.01 8.495 8 9 C7.484375 8.360625 6.96875 7.72125 6.4375 7.0625 C3.34064377 4.44208319 0.97932377 4.30610183 -3 4 C-2.01 3.67 -1.02 3.34 0 3 C0 2.01 0 1.02 0 0 Z " fill="#6279ED" transform="translate(220,19)"/>
<path d="M0 0 C1.32 0 2.64 0 4 0 C4 0.66 4 1.32 4 2 C4.61488281 2.03738281 5.22976562 2.07476562 5.86328125 2.11328125 C6.67152344 2.17902344 7.47976562 2.24476562 8.3125 2.3125 C9.11300781 2.37050781 9.91351563 2.42851563 10.73828125 2.48828125 C13.36272334 3.08206694 14.30820672 3.95780294 16 6 C9.79011871 5.55643705 5.39459439 4.08467498 0 1 C0 0.67 0 0.34 0 0 Z " fill="#576FD4" transform="translate(218,92)"/>
<path d="M0 0 C0.33 0 0.66 0 1 0 C1 3.63 1 7.26 1 11 C0.34 10.67 -0.32 10.34 -1 10 C-1 8.68 -1 7.36 -1 6 C-1.99 6 -2.98 6 -4 6 C-4 4.35 -4 2.7 -4 1 C-3.67 1.99 -3.34 2.98 -3 4 C-2.34 4 -1.68 4 -1 4 C-0.67 2.68 -0.34 1.36 0 0 Z " fill="#6B83EC" transform="translate(233,40)"/>
<path d="M0 0 C1.11375 1.175625 1.11375 1.175625 2.25 2.375 C4.54433318 4.56504531 6.12158858 5.82731386 9 7 C9 7.66 9 8.32 9 9 C3.6 8.4 3.6 8.4 1.125 6.75 C-0.37422891 4.41786614 -0.22023906 2.71628175 0 0 Z " fill="#E6F2FE" transform="translate(241,78)"/>
<path d="M0 0 C0.33 0.66 0.66 1.32 1 2 C1.66 2.33 2.32 2.66 3 3 C2.34 4.98 1.68 6.96 1 9 C0.67 9 0.34 9 0 9 C-0.33 7.35 -0.66 5.7 -1 4 C-2.65 5.32 -4.3 6.64 -6 8 C-4.55746343 4.63408134 -2.66735273 2.48952921 0 0 Z " fill="#6078DD" transform="translate(212,22)"/>
<path d="M0 0 C0.66 0 1.32 0 2 0 C1.28571429 8.57142857 1.28571429 8.57142857 -2 12 C-2.28571429 3.42857143 -2.28571429 3.42857143 0 0 Z " fill="#576EDD" transform="translate(280,63)"/>
<path d="M0 0 C0.33 0.66 0.66 1.32 1 2 C-0.3125 4.625 -0.3125 4.625 -2 7 C-2.66 7 -3.32 7 -4 7 C-4.33 7.99 -4.66 8.98 -5 10 C-5.3125 7.8125 -5.3125 7.8125 -5 5 C-2.5 2.1875 -2.5 2.1875 0 0 Z " fill="#5E79ED" transform="translate(205,43)"/>
<path d="M0 0 C0 0.66 0 1.32 0 2 C3.3 2 6.6 2 10 2 C10 2.33 10 2.66 10 3 C4.72 3 -0.56 3 -6 3 C-2 0 -2 0 0 0 Z " fill="#4A64E9" transform="translate(234,12)"/>
<path d="M0 0 C1.31602523 0.61754259 2.62773556 1.24428742 3.9375 1.875 C4.66839844 2.22304688 5.39929688 2.57109375 6.15234375 2.9296875 C8 4 8 4 9 6 C8.38125 5.814375 7.7625 5.62875 7.125 5.4375 C4.95839822 4.76313824 4.95839822 4.76313824 3 6 C0 2.25 0 2.25 0 0 Z " fill="#556DD9" transform="translate(259,17)"/>
<path d="M0 0 C0.33 1.32 0.66 2.64 1 4 C-2.96 4 -6.92 4 -11 4 C-11 3.67 -11 3.34 -11 3 C-10.37351563 2.95101562 -9.74703125 2.90203125 -9.1015625 2.8515625 C-8.28429687 2.77679688 -7.46703125 2.70203125 -6.625 2.625 C-5.81289062 2.55539063 -5.00078125 2.48578125 -4.1640625 2.4140625 C-1.79665809 2.17107412 -1.79665809 2.17107412 0 0 Z " fill="#EFFBFF" transform="translate(261,83)"/>
</svg>
