<?xml version="1.0" standalone="no"?>
<!DOCTYPE svg PUBLIC "-//W3C//DTD SVG 20010904//EN"
 "http://www.w3.org/TR/2001/REC-SVG-20010904/DTD/svg10.dtd">
<svg version="1.0" xmlns="http://www.w3.org/2000/svg"
 width="500.000000pt" height="500.000000pt" viewBox="0 0 500.000000 500.000000"
 preserveAspectRatio="xMidYMid meet">

<g transform="translate(0.000000,500.000000) scale(0.100000,-0.100000)"
fill="#000000" stroke="none">
<path d="M3267 2949 c-117 -13 -266 -118 -312 -218 -17 -39 -20 -41 -64 -41
-45 1 -48 -2 -123 -82 l-77 -83 -1 163 0 162 -70 0 -70 0 0 -315 0 -315 70 0
69 0 3 111 3 110 80 -110 80 -111 83 0 83 0 -100 132 -100 131 42 51 42 50 6
-86 c17 -247 227 -417 479 -387 175 20 321 157 357 336 29 142 -11 276 -113
379 -97 99 -220 140 -367 123z m-76 -107 c49 -41 15 -122 -51 -122 -39 0 -80
35 -80 69 0 62 80 94 131 53z m279 -72 l0 -80 40 0 40 0 0 -55 0 -55 -40 0
-40 0 0 -119 c0 -128 1 -131 56 -131 23 0 24 -3 24 -56 l0 -56 -86 3 c-79 4
-87 6 -110 32 -23 27 -24 34 -24 178 l0 149 -30 0 c-30 0 -30 1 -30 55 0 54 0
55 30 55 l30 0 0 80 0 80 70 0 70 0 0 -80z m-260 -315 l0 -235 -70 0 -70 0 0
235 0 235 70 0 70 0 0 -235z"/>
<path d="M1822 2837 c-30 -32 -28 -71 4 -96 55 -44 124 -14 124 53 0 63 -83
91 -128 43z"/>
<path d="M1542 2560 c3 -285 3 -290 26 -312 18 -19 36 -23 97 -26 l75 -4 0 56
c0 47 -3 56 -18 56 -40 0 -42 15 -42 272 l0 248 -70 0 -71 0 3 -290z"/>
<path d="M2246 2690 c-15 -5 -36 -16 -46 -25 -16 -15 -18 -14 -23 5 -4 18 -13
20 -71 20 l-66 0 0 -235 0 -235 70 0 70 0 0 163 c0 152 1 165 20 182 26 23 86
23 109 1 13 -14 17 -45 19 -181 l4 -165 64 0 65 0 -3 194 c-3 179 -5 197 -24
223 -11 15 -32 34 -46 41 -35 17 -107 23 -142 12z"/>
<path d="M1045 2673 c16 -42 165 -447 165 -450 0 -2 26 -3 57 -1 l56 3 84 224
c46 123 83 228 83 233 0 5 -32 8 -71 6 l-71 -3 -40 -125 c-21 -68 -40 -126
-42 -127 -1 -2 -20 55 -41 127 l-38 130 -75 0 c-67 0 -73 -2 -67 -17z"/>
<path d="M1810 2455 l0 -235 70 0 70 0 -2 233 -3 232 -67 3 -68 3 0 -236z"/>
</g>
</svg>
