<?xml version="1.0" encoding="UTF-8"?>
<svg version="1.1" xmlns="http://www.w3.org/2000/svg" width="292" height="111">
<path d="M0 0 C96.36 0 192.72 0 292 0 C292 36.63 292 73.26 292 111 C195.64 111 99.28 111 0 111 C0 74.37 0 37.74 0 0 Z " fill="#FDFEFF" transform="translate(0,0)"/>
<path d="M0 0 C1.11568359 0.65162109 1.11568359 0.65162109 2.25390625 1.31640625 C11.80148009 7.67541653 17.35388631 18.45531224 19.75 29.4375 C19.8325 30.613125 19.915 31.78875 20 33 C20.11214844 34.19689453 20.11214844 34.19689453 20.2265625 35.41796875 C20.77297287 45.38276846 17.23081228 55.21148465 11 63 C3.19935486 71.41648555 -6.31908464 78.78967793 -18.2421875 79.30078125 C-19.78639549 79.31524998 -21.33073768 79.31894517 -22.875 79.3125 C-23.63941406 79.32861328 -24.40382813 79.34472656 -25.19140625 79.36132812 C-35.34448051 79.36994703 -44.82415222 74.79646627 -52.23828125 67.92578125 C-54.30053395 65.70041251 -56.17091783 63.41976572 -58 61 C-58.50660156 60.35804687 -59.01320312 59.71609375 -59.53515625 59.0546875 C-64.47818234 51.70499856 -64.37996991 42.57862529 -65 34 C-65.66 34 -66.32 34 -67 34 C-68.58455866 35.78723941 -68.58455866 35.78723941 -70.125 38 C-70.66382813 38.7425 -71.20265625 39.485 -71.7578125 40.25 C-72.16773438 40.8275 -72.57765625 41.405 -73 42 C-71.14688004 44.47995529 -69.29276265 46.9591481 -67.4375 49.4375 C-66.61910645 50.53106812 -66.61910645 50.53106812 -65.78417969 51.64672852 C-62.28596307 56.31188135 -58.74379612 60.93576058 -55.109375 65.49609375 C-54 67 -54 67 -54 68 C-59.67011068 69.02787551 -65.44879224 69.96620512 -71 68 C-75.79573102 64.02373135 -78.86640443 58.41817312 -81.82763672 53.01464844 C-83.18603932 50.59053239 -83.18603932 50.59053239 -86 47 C-86.33 53.93 -86.66 60.86 -87 68 C-91.29 68 -95.58 68 -100 68 C-100 47.54 -100 27.08 -100 6 C-95.71 6 -91.42 6 -87 6 C-87 16.23 -87 26.46 -87 37 C-86.01 37 -85.02 37 -84 37 C-83.7628125 36.45859375 -83.525625 35.9171875 -83.28125 35.359375 C-80.45923903 30.16274504 -76.56239595 25.73459281 -72 22 C-68.46235349 21.12277871 -65.55010961 21.25221095 -62 22 C-61.61714844 20.6696875 -61.61714844 20.6696875 -61.2265625 19.3125 C-58.19897255 11.13607874 -51.42140909 4.40319518 -44 0 C-43.1853125 -0.48597656 -42.370625 -0.97195312 -41.53125 -1.47265625 C-28.81198633 -7.88588049 -12.18850433 -7.2591882 0 0 Z " fill="#5472FF" transform="translate(264,19)"/>
<path d="M0 0 C4.17327306 3.05361443 6.67586734 6.78969431 7.5625 11.875 C7.64566178 14.49397019 7.67884452 17.08501753 7.66015625 19.703125 C7.6587413 20.45213074 7.65732635 21.20113647 7.65586853 21.97283936 C7.65028659 24.35693412 7.63773745 26.74093378 7.625 29.125 C7.61998266 30.74479031 7.61542016 32.36458209 7.61132812 33.984375 C7.60032308 37.94795312 7.58307091 41.91146045 7.5625 45.875 C2.9425 45.875 -1.6775 45.875 -6.4375 45.875 C-6.48648438 43.59980469 -6.53546875 41.32460937 -6.5859375 38.98046875 C-6.63995239 36.77621908 -6.69725777 34.57207782 -6.75488281 32.36791992 C-6.79315798 30.83642661 -6.82801349 29.30484385 -6.859375 27.77319336 C-6.90505807 25.5711267 -6.96304537 23.36967504 -7.0234375 21.16796875 C-7.03498871 20.48349167 -7.04653992 19.79901459 -7.05844116 19.09379578 C-7.17023744 15.49039163 -7.38144553 13.9590817 -9.4375 10.875 C-11.57238276 10.43567135 -11.57238276 10.43567135 -13.9375 10.5625 C-15.12859375 10.56830078 -15.12859375 10.56830078 -16.34375 10.57421875 C-18.65483036 10.69274835 -18.65483036 10.69274835 -20.4375 12.875 C-20.68265697 15.37875468 -20.81083658 17.78049479 -20.8515625 20.2890625 C-20.87092865 21.01870209 -20.8902948 21.74834167 -20.9102478 22.50009155 C-20.97008422 24.83327502 -21.01644423 27.16650773 -21.0625 29.5 C-21.10067614 31.08075082 -21.13972765 32.66148076 -21.1796875 34.2421875 C-21.27578878 38.1196223 -21.35980412 41.99715449 -21.4375 45.875 C-26.0575 45.875 -30.6775 45.875 -35.4375 45.875 C-35.4375 30.695 -35.4375 15.515 -35.4375 -0.125 C-30.8175 -0.125 -26.1975 -0.125 -21.4375 -0.125 C-21.4375 0.865 -21.4375 1.855 -21.4375 2.875 C-20.509375 2.215 -19.58125 1.555 -18.625 0.875 C-12.76465786 -2.47206533 -6.26111315 -2.04909158 0 0 Z " fill="#5976FF" transform="translate(147.4375,41.125)"/>
<path d="M0 0 C10.83984375 -0.09765625 10.83984375 -0.09765625 14 0 C15 1 15 1 15.09765625 4.37890625 C15.09098369 5.77347077 15.07902532 7.16801743 15.0625 8.5625 C15.05798828 9.27341797 15.05347656 9.98433594 15.04882812 10.71679688 C15.03700864 12.47790013 15.01907263 14.23896036 15 16 C16.134375 15.979375 17.26875 15.95875 18.4375 15.9375 C22 16 22 16 23 17 C23.07226502 18.85287502 23.0838122 20.70833878 23.0625 22.5625 C23.05347656 23.57441406 23.04445313 24.58632813 23.03515625 25.62890625 C23.02355469 26.41136719 23.01195312 27.19382812 23 28 C20.36 28 17.72 28 15 28 C15.33 35.59 15.66 43.18 16 51 C18.31 51.66 20.62 52.32 23 53 C23.02688151 54.64574566 23.04634123 56.29161413 23.0625 57.9375 C23.07410156 58.85402344 23.08570313 59.77054688 23.09765625 60.71484375 C23 63 23 63 22 64 C15.11081634 64.56504345 8.97631162 64.68751143 3 61 C0.03797404 57.08696439 -0.35941498 54.23729342 -0.29296875 49.38671875 C-0.28330078 48.13955078 -0.27363281 46.89238281 -0.26367188 45.60742188 C-0.23853516 44.31384766 -0.21339844 43.02027344 -0.1875 41.6875 C-0.17396484 40.37458984 -0.16042969 39.06167969 -0.14648438 37.70898438 C-0.11117443 34.47223923 -0.0618528 31.23632895 0 28 C-0.804375 28.020625 -1.60875 28.04125 -2.4375 28.0625 C-5 28 -5 28 -6 27 C-6.07226502 25.14712498 -6.0838122 23.29166122 -6.0625 21.4375 C-6.05347656 20.42558594 -6.04445312 19.41367187 -6.03515625 18.37109375 C-6.02355469 17.58863281 -6.01195312 16.80617188 -6 16 C-4.02 16 -2.04 16 0 16 C0 10.72 0 5.44 0 0 Z " fill="#FAFBFF" transform="translate(241,24)"/>
<path d="M0 0 C4.62 0 9.24 0 14 0 C21 17.85 21 17.85 21 25 C21.66 24.67 22.32 24.34 23 24 C23.73600007 21.66387021 24.36351593 19.37610007 24.9375 17 C25.28297281 15.63356069 25.63062704 14.26767104 25.98046875 12.90234375 C26.23642822 11.90243408 26.23642822 11.90243408 26.49755859 10.88232422 C27.48305884 7.19028977 28.73544383 3.6039851 30 0 C34.62 0 39.24 0 44 0 C41.55176149 8.72735381 38.4438623 17.16845281 35.27441406 25.65307617 C34.36595343 28.08673468 33.46393622 30.52271642 32.5625 32.95898438 C31.98735723 34.505349 31.41185002 36.05157814 30.8359375 37.59765625 C30.56615082 38.3267067 30.29636414 39.05575714 30.0184021 39.80690002 C28.11515188 44.88484812 28.11515188 44.88484812 27 46 C25.31391034 46.07205511 23.62499341 46.08386068 21.9375 46.0625 C21.01839844 46.05347656 20.09929688 46.04445312 19.15234375 46.03515625 C18.44207031 46.02355469 17.73179688 46.01195312 17 46 C12.32052675 35.13372318 8.15975324 24.07298595 4 13 C3.53722656 11.77023438 3.07445312 10.54046875 2.59765625 9.2734375 C0 2.26623665 0 2.26623665 0 0 Z " fill="#5473FF" transform="translate(13,41)"/>
<path d="M0 0 C4.29 0 8.58 0 13 0 C13.33 16.5 13.66 33 14 50 C15.65 50.33 17.3 50.66 19 51 C19 54.63 19 58.26 19 62 C16.77252674 62.13563775 14.54265677 62.23227853 12.3125 62.3125 C11.07113281 62.37050781 9.82976562 62.42851563 8.55078125 62.48828125 C5.05697434 62.00783476 3.41969334 61.47470341 1.02156067 58.89460754 C-1.37156644 54.45626451 -0.59179302 48.94049941 -0.48828125 44.04296875 C-0.48120651 42.78486893 -0.47413177 41.5267691 -0.46684265 40.23054504 C-0.4436237 36.89750673 -0.39876548 33.56620025 -0.34332275 30.23364258 C-0.29202734 26.82843945 -0.26930691 23.42305686 -0.24414062 20.01757812 C-0.18903719 13.34451385 -0.1027413 6.672494 0 0 Z " fill="#5271FF" transform="translate(63,25)"/>
<path d="M0 0 C4.62 0 9.24 0 14 0 C14 15.84 14 31.68 14 48 C9.71 48 5.42 48 1 48 C0 47 0 47 -0.12025452 45.09544373 C-0.11803391 44.26271439 -0.11581329 43.42998505 -0.11352539 42.57202148 C-0.11344986 41.63112167 -0.11337433 40.69022186 -0.11329651 39.72080994 C-0.10813522 38.69790359 -0.10297394 37.67499725 -0.09765625 36.62109375 C-0.0962413 35.57929459 -0.09482635 34.53749542 -0.09336853 33.46412659 C-0.0877508 30.12188906 -0.0751953 26.77971743 -0.0625 23.4375 C-0.05748728 21.17773534 -0.05292398 18.91796963 -0.04882812 16.65820312 C-0.03777561 11.10544318 -0.0204991 5.55273278 0 0 Z " fill="#FDFDFF" transform="translate(215,40)"/>
<path d="M0 0 C4.29 0 8.58 0 13 0 C13 15.18 13 30.36 13 46 C8.71 46 4.42 46 0 46 C0 30.82 0 15.64 0 0 Z " fill="#5674FF" transform="translate(90,41)"/>
<path d="M0 0 C2.9375 1.5625 2.9375 1.5625 5 4 C5.5625 7.5625 5.5625 7.5625 5 11 C3.23061796 13.28545181 1.92086098 13.84903918 -0.90625 14.3125 C-4.48826847 14.52635185 -6.44432352 14.36118971 -9.5 12.375 C-11.45562482 9.27859404 -11.60024477 7.60146865 -11 4 C-8.05127687 -0.48205916 -5.14006617 -0.7214128 0 0 Z " fill="#FBFCFF" transform="translate(225,23)"/>
<path d="M0 0 C2 2 2 2 2.375 5.9375 C2.28694468 8.79152833 2.23484076 9.69940383 0.4375 12 C-2.90236837 13.37020241 -5.42599644 13.3898913 -9 13 C-10.9375 11.9375 -10.9375 11.9375 -12 10 C-12.5 6.5625 -12.5 6.5625 -12 3 C-8.30406585 -1.47992018 -5.433961 -1.43538592 0 0 Z " fill="#5875FF" transform="translate(101,24)"/>
<path d="M0 0 C2.30366229 3.68208317 2.41244538 7.41147198 2.75 11.625 C3.38693425 18.13547294 4.87031335 22.67859344 8.7578125 28.08203125 C10 30 10 30 10 33 C4.82359449 28.3088825 1.01997722 22.68145973 -3 17 C-3.99962076 15.60389505 -4.99955153 14.20801193 -6 12.8125 C-6.66 11.884375 -7.32 10.95625 -8 10 C-7.04367001 8.70684939 -6.08486149 7.41553147 -5.125 6.125 C-4.59132812 5.40570313 -4.05765625 4.68640625 -3.5078125 3.9453125 C-2 2 -2 2 0 0 Z " fill="#F3F5FF" transform="translate(198,51)"/>
<path d="M0 0 C2.24027294 2.88035092 4.16172132 5.84866512 6 9 C5.01 9 4.02 9 3 9 C0.72162458 6.72162458 0.03353711 5.49187763 -0.1875 2.25 C-0.125625 1.5075 -0.06375 0.765 0 0 Z " fill="#E8ECFF" transform="translate(203,74)"/>
</svg>
