<?xml version="1.0" standalone="no"?>
<!DOCTYPE svg PUBLIC "-//W3C//DTD SVG 20010904//EN"
 "http://www.w3.org/TR/2001/REC-SVG-20010904/DTD/svg10.dtd">
<svg version="1.0" xmlns="http://www.w3.org/2000/svg"
 width="500.000000pt" height="500.000000pt" viewBox="0 0 500.000000 500.000000"
 preserveAspectRatio="xMidYMid meet">

<g transform="translate(0.000000,500.000000) scale(0.100000,-0.100000)"
fill="#000000" stroke="none">
<path d="M0 2500 l0 -2500 2500 0 2500 0 0 2500 0 2500 -2500 0 -2500 0 0
-2500z m3450 438 c158 -48 277 -183 302 -345 15 -93 -7 -201 -57 -283 -142
-233 -471 -273 -665 -80 -74 75 -111 159 -119 266 l-6 84 -42 -48 -41 -49 90
-119 c50 -65 95 -125 100 -131 8 -10 -8 -13 -73 -13 l-84 0 -80 110 -80 111
-3 -111 -3 -110 -69 0 -70 0 0 315 0 315 70 0 70 0 0 -162 0 -163 78 83 c75
81 78 83 123 82 44 0 47 2 64 41 28 60 114 142 189 179 92 46 211 56 306 28z
m-1519 -96 c49 -41 15 -122 -51 -122 -39 0 -80 35 -80 69 0 62 80 94 131 53z
m-251 -240 c0 -257 2 -272 42 -272 15 0 18 -9 18 -56 l0 -56 -75 4 c-61 3 -79
7 -97 26 -23 22 -23 27 -26 312 l-3 290 71 0 70 0 0 -248z m719 70 c58 -43 65
-70 69 -269 l4 -183 -70 0 -70 0 -3 165 c-4 186 -9 197 -75 197 -67 0 -74 -18
-74 -203 l0 -159 -70 0 -70 0 0 235 0 235 70 0 c65 0 70 -2 70 -22 0 -20 1
-20 18 -5 9 9 29 21 42 26 36 16 129 6 159 -17z m-1173 -113 l39 -132 41 129
41 129 71 3 c54 2 72 0 71 -10 0 -7 -37 -112 -82 -233 l-82 -220 -57 -3 c-53
-3 -56 -2 -66 25 -18 51 -150 408 -157 426 -6 15 0 17 68 17 l74 0 39 -131z
m724 -104 l0 -235 -70 0 -70 0 0 235 0 235 70 0 70 0 0 -235z"/>
<path d="M3082 2837 c-30 -32 -28 -71 4 -96 55 -44 124 -14 124 53 0 63 -83
91 -128 43z"/>
<path d="M3330 2770 l0 -80 -30 0 c-30 0 -30 -1 -30 -55 0 -54 0 -55 29 -55
l30 0 3 -155 c3 -145 4 -156 26 -177 19 -20 35 -24 107 -27 l85 -3 0 55 0 56
-37 3 -38 3 -3 123 -3 122 41 0 40 0 0 55 0 55 -40 0 -40 0 0 80 0 80 -70 0
-70 0 0 -80z"/>
<path d="M3070 2455 l0 -235 70 0 70 0 -2 233 -3 232 -67 3 -68 3 0 -236z"/>
</g>
</svg>
